<svg width="24" height="24" viewBox="0 0 24 24" fill="none" xmlns="http://www.w3.org/2000/svg">
<path fill-rule="evenodd" clip-rule="evenodd" d="M14.4 2.40039V10.2613C14.4 10.953 14.3576 11.6391 14.2728 12.3196C14.188 13 14.0762 13.6936 13.9374 14.4004H10.0627C9.92386 13.6936 9.81205 13 9.72724 12.3196C9.64242 11.6391 9.60001 10.953 9.60001 10.2613L9.60001 2.40039H14.4Z" fill="#2DBECD"/>
<path fill-rule="evenodd" clip-rule="evenodd" d="M9.60001 19.1998C9.60001 18.863 9.66137 18.5495 9.7841 18.2595C9.90682 17.9694 10.075 17.7168 10.2886 17.5016C10.5023 17.2864 10.7546 17.1156 11.0455 16.9893C11.3364 16.863 11.6545 16.7998 12 16.7998C12.3364 16.7998 12.65 16.863 12.9409 16.9893C13.2318 17.1156 13.4864 17.2864 13.7046 17.5016C13.9227 17.7168 14.0932 17.9694 14.2159 18.2595C14.3386 18.5495 14.4 18.863 14.4 19.1998C14.4 19.5366 14.3386 19.8524 14.2159 20.1472C14.0932 20.4419 13.9227 20.6969 13.7046 20.9121C13.4864 21.1273 13.2318 21.2957 12.9409 21.4173C12.65 21.539 12.3364 21.5998 12 21.5998C11.6545 21.5998 11.3364 21.539 11.0455 21.4173C10.7546 21.2957 10.5023 21.1273 10.2886 20.9121C10.075 20.6969 9.90682 20.4419 9.7841 20.1472C9.66137 19.8524 9.60001 19.5366 9.60001 19.1998Z" fill="#2DBECD"/>
</svg>
