<svg width="17" height="17" viewBox="0 0 17 17" fill="none" xmlns="http://www.w3.org/2000/svg">
<path fill-rule="evenodd" clip-rule="evenodd" d="M1.92627 14.6291C1.09398 13.7968 0.662605 12.6861 0.712188 11.4997C0.766022 10.2041 1.39006 8.92345 2.51702 7.7965L7.50369 2.80983C7.78065 2.53358 8.22902 2.53358 8.50527 2.80983C8.78223 3.08679 8.78223 3.53516 8.50527 3.81212L3.51931 8.79808C1.64648 10.6702 1.87315 12.5728 2.92785 13.6275C3.98115 14.6808 5.96377 14.967 7.82598 13.1047L14.3533 6.57675C15.1551 5.77491 15.4937 4.86116 15.2812 4.06995C15.1261 3.487 14.6897 3.04712 14.1139 2.89412C13.3361 2.68516 12.4259 3.03012 11.6163 3.83975L5.58906 9.86625C4.69869 10.7573 4.57402 11.4217 4.64131 11.6725C4.66115 11.7469 4.69798 11.8205 4.83469 11.8567C5.19806 11.9537 5.90569 11.71 6.66927 10.9465L11.1544 6.46129C11.4314 6.18433 11.8798 6.18433 12.1567 6.46129C12.433 6.73754 12.433 7.18591 12.1567 7.46287L7.67085 11.9487C6.60127 13.019 5.43323 13.4837 4.46777 13.2252C3.8671 13.0637 3.43148 12.6316 3.27281 12.0394C3.02348 11.1065 3.50302 9.94983 4.58748 8.86466L10.6147 2.83816C11.7919 1.6602 13.2008 1.18279 14.4808 1.52491C15.5504 1.8125 16.3607 2.62708 16.6504 3.70304C16.9968 4.99645 16.5243 6.40958 15.3556 7.57833L8.82756 14.1063C6.3909 16.543 3.51081 16.2136 1.92627 14.6291Z" fill="#2DBECD"/>
</svg>
