<svg width="17" height="17" viewBox="0 0 17 17" fill="none" xmlns="http://www.w3.org/2000/svg">
<path fill-rule="evenodd" clip-rule="evenodd" d="M0 0H17V17H0V0ZM14.1742 2.93176C14.6429 3.40039 14.6429 4.16016 14.1742 4.62878L10.2501 8.55298L14.1749 12.4778C14.6435 12.9464 14.6435 13.7062 14.1749 14.1748C13.7063 14.6434 12.9465 14.6434 12.4778 14.1748L8.55304 10.25L4.6283 14.1748C4.15967 14.6434 3.39987 14.6434 2.93124 14.1748C2.46262 13.7062 2.46262 12.9463 2.93124 12.4777L6.85597 8.55298L2.9319 4.62891C2.46327 4.16028 2.46327 3.40039 2.9319 2.93176C3.40053 2.46313 4.16032 2.46313 4.62895 2.93176L8.55304 6.85583L12.4772 2.93176C12.9458 2.46313 13.7056 2.46313 14.1742 2.93176Z" fill="white"/>
</svg>
