<svg width="17" height="17" viewBox="0 0 17 17" fill="none" xmlns="http://www.w3.org/2000/svg">
<path fill-rule="evenodd" clip-rule="evenodd" d="M0 0H17V17H0V0ZM11.9606 7.38135C11.8898 7.22473 11.734 7.125 11.5625 7.125H9.8125V1.4375C9.8125 1.19604 9.6165 1 9.375 1H7.625C7.3835 1 7.1875 1.19604 7.1875 1.4375V7.125H5.4375C5.26601 7.125 5.11026 7.22559 5.03938 7.38135C4.96762 7.53796 4.99562 7.72083 5.10851 7.85034L8.17101 11.3503C8.25414 11.4458 8.37401 11.5 8.5 11.5C8.62601 11.5 8.74588 11.4448 8.82901 11.3503L11.8915 7.85034C12.0052 7.7218 12.0315 7.53796 11.9606 7.38135ZM13.3125 13.25V10.625H15.0625V14.125C15.0625 14.6089 14.6714 15 14.1875 15H2.8125C2.3295 15 1.9375 14.6089 1.9375 14.125V10.625H3.6875V13.25H13.3125Z" fill="white"/>
</svg>
