<svg width="24" height="24" viewBox="0 0 24 24" fill="none" xmlns="http://www.w3.org/2000/svg">
<path fill-rule="evenodd" clip-rule="evenodd" d="M13.6428 17.6342C13.1004 18.5306 12.8292 18.9788 12.4792 19.1312C12.1737 19.2642 11.8266 19.2642 11.5211 19.1312C11.1711 18.9788 10.8999 18.5306 10.3575 17.6342L4.35461 7.71399C3.7778 6.76077 3.4894 6.28415 3.52493 5.89176C3.55592 5.54963 3.73205 5.23718 4.00872 5.03354C4.32604 4.79999 4.88312 4.79999 5.99728 4.79999L18.003 4.79999C19.1172 4.79999 19.6743 4.79999 19.9916 5.03354C20.2683 5.23718 20.4444 5.54963 20.4754 5.89176C20.5109 6.28415 20.2225 6.76077 19.6457 7.714L13.6428 17.6342Z" fill="#2DBECD"/>
</svg>
