<svg width="10" height="8" viewBox="0 0 10 8" fill="none" xmlns="http://www.w3.org/2000/svg">
<path fill-rule="evenodd" clip-rule="evenodd" d="M6.14318 5.918C5.62059 6.62329 5.3593 6.97593 5.03808 7.10172C4.75677 7.21188 4.44426 7.21188 4.16295 7.10172C3.84172 6.97593 3.58043 6.62329 3.05784 5.918L1.26959 3.50456C0.538379 2.51772 0.172774 2.0243 0.183033 1.61169C0.191961 1.25258 0.361294 0.916363 0.644511 0.695399C0.969925 0.441514 1.58404 0.441514 2.81226 0.441514L6.38876 0.441514C7.61698 0.441514 8.2311 0.441514 8.55651 0.695399C8.83973 0.916363 9.00906 1.25258 9.01799 1.61169C9.02825 2.0243 8.66264 2.51772 7.93143 3.50457L6.14318 5.918Z" fill="#2DBECD"/>
</svg>
