<svg width="76" height="76" viewBox="0 0 76 76" fill="none" xmlns="http://www.w3.org/2000/svg">
<path fill-rule="evenodd" clip-rule="evenodd" d="M12.8252 1.52789C10.0923 1.52789 7.85483 3.76229 7.85483 6.49829V69.5084C7.85483 72.2444 10.0923 74.4788 12.8252 74.4788H60.8694C63.6023 74.4788 65.8398 72.2444 65.8398 69.5084V12.1193L55.7713 1.52789H12.8252Z" stroke="#2DBECD" stroke-width="2.5"/>
<path fill-rule="evenodd" clip-rule="evenodd" d="M55.7802 1.51917L55.5096 6.68413C55.3667 9.37453 57.4522 11.691 60.1426 11.8339L65.8304 12.1288L55.7802 1.51917Z" stroke="#2DBECD" stroke-width="2.5" stroke-linejoin="round"/>
<path d="M18.9305 18.5893H36.754" stroke="#2DBECD" stroke-width="2.5" stroke-linecap="round" stroke-linejoin="round"/>
<path d="M18.9305 27.9023H51.8203" stroke="#2DBECD" stroke-width="2.5" stroke-linecap="round" stroke-linejoin="round"/>
<path d="M18.9305 37.2153H36.754" stroke="#2DBECD" stroke-width="2.5" stroke-linecap="round" stroke-linejoin="round"/>
<path d="M18.9305 55.8411H36.754" stroke="#2DBECD" stroke-width="2.5" stroke-linecap="round" stroke-linejoin="round"/>
<path d="M18.9305 46.5284H51.8203" stroke="#2DBECD" stroke-width="2.5" stroke-linecap="round" stroke-linejoin="round"/>
<rect x="35" y="50" width="41" height="18" rx="2" fill="#2DBECD"/>
<path d="M45.042 59.584L42.204 55.402H43.362C43.446 55.402 43.508 55.416 43.548 55.444C43.588 55.472 43.624 55.512 43.656 55.564L45.9 59.008C45.928 58.924 45.97 58.832 46.026 58.732L48.144 55.588C48.18 55.532 48.218 55.488 48.258 55.456C48.302 55.42 48.354 55.402 48.414 55.402H49.524L46.674 59.53L49.62 64H48.468C48.38 64 48.31 63.978 48.258 63.934C48.21 63.886 48.17 63.834 48.138 63.778L45.834 60.172C45.806 60.256 45.77 60.336 45.726 60.412L43.482 63.778C43.446 63.834 43.404 63.886 43.356 63.934C43.312 63.978 43.248 64 43.164 64H42.084L45.042 59.584ZM51.9189 63.022H55.6389V64H50.7549V55.402H51.9189V63.022ZM61.323 56.746C61.287 56.806 61.249 56.852 61.209 56.884C61.169 56.912 61.117 56.926 61.053 56.926C60.985 56.926 60.905 56.892 60.813 56.824C60.725 56.756 60.611 56.682 60.471 56.602C60.335 56.518 60.169 56.442 59.973 56.374C59.781 56.306 59.547 56.272 59.271 56.272C59.011 56.272 58.781 56.308 58.581 56.38C58.381 56.448 58.213 56.542 58.077 56.662C57.945 56.782 57.845 56.924 57.777 57.088C57.709 57.248 57.675 57.422 57.675 57.61C57.675 57.85 57.733 58.05 57.849 58.21C57.969 58.366 58.125 58.5 58.317 58.612C58.513 58.724 58.733 58.822 58.977 58.906C59.225 58.986 59.477 59.07 59.733 59.158C59.993 59.246 60.245 59.346 60.489 59.458C60.737 59.566 60.957 59.704 61.149 59.872C61.345 60.04 61.501 60.246 61.617 60.49C61.737 60.734 61.797 61.034 61.797 61.39C61.797 61.766 61.733 62.12 61.605 62.452C61.477 62.78 61.289 63.066 61.041 63.31C60.797 63.554 60.495 63.746 60.135 63.886C59.779 64.026 59.373 64.096 58.917 64.096C58.361 64.096 57.853 63.996 57.393 63.796C56.937 63.592 56.547 63.318 56.223 62.974L56.559 62.422C56.591 62.378 56.629 62.342 56.673 62.314C56.721 62.282 56.773 62.266 56.829 62.266C56.913 62.266 57.009 62.312 57.117 62.404C57.225 62.492 57.359 62.59 57.519 62.698C57.683 62.806 57.879 62.906 58.107 62.998C58.339 63.086 58.621 63.13 58.953 63.13C59.229 63.13 59.475 63.092 59.691 63.016C59.907 62.94 60.089 62.834 60.237 62.698C60.389 62.558 60.505 62.392 60.585 62.2C60.665 62.008 60.705 61.794 60.705 61.558C60.705 61.298 60.645 61.086 60.525 60.922C60.409 60.754 60.255 60.614 60.063 60.502C59.871 60.39 59.651 60.296 59.403 60.22C59.159 60.14 58.907 60.06 58.647 59.98C58.391 59.896 58.139 59.8 57.891 59.692C57.647 59.584 57.429 59.444 57.237 59.272C57.045 59.1 56.889 58.886 56.769 58.63C56.653 58.37 56.595 58.05 56.595 57.67C56.595 57.366 56.653 57.072 56.769 56.788C56.889 56.504 57.061 56.252 57.285 56.032C57.509 55.812 57.785 55.636 58.113 55.504C58.445 55.372 58.825 55.306 59.253 55.306C59.733 55.306 60.171 55.382 60.567 55.534C60.963 55.686 61.309 55.906 61.605 56.194L61.323 56.746ZM65.2803 59.584L62.4423 55.402H63.6003C63.6843 55.402 63.7463 55.416 63.7863 55.444C63.8263 55.472 63.8623 55.512 63.8943 55.564L66.1383 59.008C66.1663 58.924 66.2083 58.832 66.2643 58.732L68.3823 55.588C68.4183 55.532 68.4563 55.488 68.4963 55.456C68.5403 55.42 68.5923 55.402 68.6523 55.402H69.7623L66.9123 59.53L69.8583 64H68.7063C68.6183 64 68.5483 63.978 68.4963 63.934C68.4483 63.886 68.4083 63.834 68.3763 63.778L66.0723 60.172C66.0443 60.256 66.0083 60.336 65.9643 60.412L63.7203 63.778C63.6843 63.834 63.6423 63.886 63.5943 63.934C63.5503 63.978 63.4863 64 63.4023 64H62.3223L65.2803 59.584Z" fill="white"/>
</svg>
