<svg width="24" height="24" viewBox="0 0 24 24" fill="none" xmlns="http://www.w3.org/2000/svg">
<path fill-rule="evenodd" clip-rule="evenodd" d="M20.11 3.17163H21.8172C22.1266 3.17163 22.3776 3.42359 22.3755 3.73409L22.227 22.0243C22.2249 22.3306 21.9761 22.5774 21.6698 22.5774H19.9615C19.6531 22.5774 19.4022 22.3254 19.4043 22.0159L19.5527 3.72468C19.5548 3.41836 19.8036 3.17163 20.11 3.17163Z" fill="white"/>
<path fill-rule="evenodd" clip-rule="evenodd" d="M14.9312 9.35297H16.6384C16.9489 9.35297 17.1999 9.60701 17.1967 9.91751L17.0524 22.027C17.0493 22.3323 16.8005 22.578 16.4952 22.578H14.788C14.4775 22.578 14.2266 22.3239 14.2308 22.0134L14.374 9.90392C14.3771 9.59865 14.6259 9.35297 14.9312 9.35297Z" fill="white"/>
<path fill-rule="evenodd" clip-rule="evenodd" d="M9.75704 13.9156H11.4643C11.7758 13.9156 12.0278 14.1718 12.0225 14.4833L11.8856 22.0305C11.8793 22.3347 11.6315 22.5783 11.3273 22.5783H9.62008C9.30854 22.5783 9.05763 22.3221 9.06285 22.0106L9.19981 14.4624C9.20504 14.1592 9.45281 13.9156 9.75704 13.9156Z" fill="white"/>
<path fill-rule="evenodd" clip-rule="evenodd" d="M4.58997 18.2465H6.2972C6.61293 18.2465 6.86593 18.5089 6.85443 18.8247L6.73734 22.0405C6.72688 22.3405 6.4812 22.5778 6.18011 22.5778H4.47393C4.15715 22.5778 3.9052 22.3154 3.9167 21.9997L4.03274 18.7839C4.04424 18.4849 4.28993 18.2465 4.58997 18.2465Z" fill="white"/>
<path fill-rule="evenodd" clip-rule="evenodd" d="M15.8925 1.42886C15.8904 1.42259 15.8925 1.41527 15.8904 1.40899C15.8904 1.4069 15.8883 1.4069 15.8873 1.40481C15.8528 1.32118 15.7942 1.25427 15.7242 1.19886C15.7064 1.18527 15.6907 1.17481 15.6719 1.16331C15.604 1.12254 15.5287 1.09431 15.4451 1.08804C15.4367 1.08699 15.4304 1.08072 15.4221 1.08072L13.0395 1.00231C12.7227 0.975131 12.5094 1.21977 12.5 1.50727C12.4906 1.79581 12.7175 2.03731 13.005 2.04672L14.1916 2.0854L2.19601 14.2231C1.99319 14.4291 1.99529 14.7594 2.20019 14.9623C2.30265 15.0637 2.43542 15.1139 2.56819 15.1139C2.70306 15.1139 2.83792 15.0616 2.93933 14.9581L14.8816 2.87472V3.95049C14.8816 4.23904 15.1157 4.47322 15.4043 4.47322C15.6939 4.47322 15.927 4.23904 15.927 3.95049V1.6024C15.927 1.54072 15.9124 1.48322 15.8925 1.42886Z" fill="white"/>
<path fill-rule="evenodd" clip-rule="evenodd" d="M23.1636 23.1006H1.52273C1.23314 23.1006 1 22.8664 1 22.5778C1 22.2893 1.23314 22.0551 1.52273 22.0551H23.1636C23.4522 22.0551 23.6864 22.2893 23.6864 22.5778C23.6864 22.8664 23.4522 23.1006 23.1636 23.1006Z" fill="white"/>
</svg>
