<svg width="13" height="12" viewBox="0 0 13 12" fill="none" xmlns="http://www.w3.org/2000/svg">
<path d="M0.25 4C0.25 3.07003 0.25 2.60504 0.352223 2.22354C0.629624 1.18827 1.43827 0.379624 2.47354 0.102223C2.85504 0 3.32003 0 4.25 0C6.10994 0 7.03992 0 7.80291 0.204445C9.87347 0.759248 11.4908 2.37653 12.0456 4.44709C12.25 5.21008 12.25 6.14006 12.25 8C12.25 8.92997 12.25 9.39496 12.1478 9.77646C11.8704 10.8117 11.0617 11.6204 10.0265 11.8978C9.64496 12 9.17997 12 8.25 12H5.05C3.36984 12 2.52976 12 1.88803 11.673C1.32354 11.3854 0.864601 10.9265 0.57698 10.362C0.25 9.72024 0.25 8.88016 0.25 7.2V4Z" fill="#FFC832"/>
</svg>
