<svg width="12" height="12" viewBox="0 0 12 12" fill="none" xmlns="http://www.w3.org/2000/svg">
<path d="M0 4C0 3.07003 0 2.60504 0.102223 2.22354C0.379624 1.18827 1.18827 0.379624 2.22354 0.102223C2.60504 0 3.07003 0 4 0C5.85994 0 6.78992 0 7.55291 0.204445C9.62347 0.759248 11.2408 2.37653 11.7956 4.44709C12 5.21008 12 6.14006 12 8C12 8.92997 12 9.39496 11.8978 9.77646C11.6204 10.8117 10.8117 11.6204 9.77646 11.8978C9.39496 12 8.92997 12 8 12H4.8C3.11984 12 2.27976 12 1.63803 11.673C1.07354 11.3854 0.614601 10.9265 0.32698 10.362C0 9.72024 0 8.88016 0 7.2V4Z" fill="#503291"/>
</svg>
