<svg width="17" height="17" viewBox="0 0 17 17" fill="none" xmlns="http://www.w3.org/2000/svg">
<path fill-rule="evenodd" clip-rule="evenodd" d="M0 0H17V17H0V0ZM11.9606 7.88135C11.8898 7.72473 11.734 7.625 11.5625 7.625H9.8125V1.9375C9.8125 1.69604 9.6165 1.5 9.375 1.5H7.625C7.3835 1.5 7.1875 1.69604 7.1875 1.9375V7.625H5.4375C5.26601 7.625 5.11026 7.72559 5.03938 7.88135C4.96762 8.03796 4.99562 8.22083 5.10851 8.35034L8.17101 11.8503C8.25414 11.9458 8.37401 12 8.5 12C8.62601 12 8.74588 11.9448 8.82901 11.8503L11.8915 8.35034C12.0052 8.2218 12.0315 8.03796 11.9606 7.88135ZM13.3125 13.75V11.125H15.0625V14.625C15.0625 15.1089 14.6714 15.5 14.1875 15.5H2.8125C2.3295 15.5 1.9375 15.1089 1.9375 14.625V11.125H3.6875V13.75H13.3125Z" fill="white"/>
</svg>
