<svg width="20" height="20" viewBox="0 0 20 20" fill="none" xmlns="http://www.w3.org/2000/svg">
<path fill-rule="evenodd" clip-rule="evenodd" d="M14.5239 7.1435H5.95257V5.71394C5.95257 3.34785 7.8717 1.42959 10.2378 1.42959C12.6047 1.42959 14.5239 3.34785 14.5239 5.71394V7.1435ZM11.667 14.2861C11.667 15.0748 11.0279 15.7139 10.2383 15.7139C9.44961 15.7139 8.81048 15.0748 8.81048 14.2861V12.8574C8.81048 12.0687 9.44961 11.4296 10.2383 11.4296C11.0279 11.4296 11.667 12.0687 11.667 12.8574V14.2861ZM17.3815 7.14348H15.9528V5.71391C15.9528 2.55913 13.3945 0 10.238 0C7.08234 0 4.52408 2.55913 4.52408 5.71391V7.14348H3.09538C2.30669 7.14348 1.66669 7.78261 1.66669 8.57217V18.5722C1.66669 19.3609 2.30669 20 3.09538 20H17.3815C18.1702 20 18.8102 19.3609 18.8102 18.5722V8.57217C18.8102 7.78261 18.1702 7.14348 17.3815 7.14348Z" fill="#BDBDBD"/>
</svg>
