<svg width="20" height="20" viewBox="0 0 20 20" fill="none" xmlns="http://www.w3.org/2000/svg">
<path fill-rule="evenodd" clip-rule="evenodd" d="M10 18.4812C9.44715 18.4812 8.97561 18.2847 8.58537 17.8916C8.19512 17.4985 8 17.0346 8 16.5H12C12 17.0346 11.8049 17.4985 11.4146 17.8916C11.0244 18.2847 10.5528 18.4812 10 18.4812ZM15.3693 13.0624C15.3693 13.1455 15.4026 13.2252 15.4616 13.2837L16.8311 14.6404C16.9392 14.7475 17 14.8933 17 15.0454V15.0454C17 15.3602 16.7448 15.6154 16.43 15.6154H3.57001C3.2552 15.6154 3 15.3602 3 15.0454V15.0454C3 14.8933 3.06079 14.7475 3.16886 14.6404L4.53838 13.2837C4.59745 13.2252 4.63068 13.1455 4.63068 13.0624V8.80769C4.63068 7.60256 5.02178 6.53206 5.80398 5.59615C6.58618 4.66025 7.57386 4.05128 8.76705 3.76923V3.19231C8.76705 2.85897 8.87973 2.57692 9.10511 2.34615C9.33049 2.11538 9.62879 2 10 2C10.3712 2 10.6695 2.11538 10.8949 2.34615C11.1203 2.57692 11.233 2.85897 11.233 3.19231V3.76923C12.4261 4.05128 13.4138 4.66025 14.196 5.59615C14.9782 6.53206 15.3693 7.60256 15.3693 8.80769V13.0624Z" fill="#2DBECD"/>
<mask id="mask0" mask-type="alpha" maskUnits="userSpaceOnUse" x="3" y="2" width="14" height="17">
<path fill-rule="evenodd" clip-rule="evenodd" d="M10 18.4812C9.44715 18.4812 8.97561 18.2847 8.58537 17.8916C8.19512 17.4985 8 17.0346 8 16.5H12C12 17.0346 11.8049 17.4985 11.4146 17.8916C11.0244 18.2847 10.5528 18.4812 10 18.4812ZM15.3693 13.0624C15.3693 13.1455 15.4026 13.2252 15.4616 13.2837L16.8311 14.6404C16.9392 14.7475 17 14.8933 17 15.0454V15.0454C17 15.3602 16.7448 15.6154 16.43 15.6154H3.57001C3.2552 15.6154 3 15.3602 3 15.0454V15.0454C3 14.8933 3.06079 14.7475 3.16886 14.6404L4.53838 13.2837C4.59745 13.2252 4.63068 13.1455 4.63068 13.0624V8.80769C4.63068 7.60256 5.02178 6.53206 5.80398 5.59615C6.58618 4.66025 7.57386 4.05128 8.76705 3.76923V3.19231C8.76705 2.85897 8.87973 2.57692 9.10511 2.34615C9.33049 2.11538 9.62879 2 10 2C10.3712 2 10.6695 2.11538 10.8949 2.34615C11.1203 2.57692 11.233 2.85897 11.233 3.19231V3.76923C12.4261 4.05128 13.4138 4.66025 14.196 5.59615C14.9782 6.53206 15.3693 7.60256 15.3693 8.80769V13.0624Z" fill="white"/>
</mask>
<g mask="url(#mask0)">
</g>
</svg>
