<svg width="17" height="17" viewBox="0 0 17 17" fill="none" xmlns="http://www.w3.org/2000/svg">
<path fill-rule="evenodd" clip-rule="evenodd" d="M17 0H0V17H17V0ZM4.85109 14.0873L4.86078 14.0776C5.00212 13.9363 5.00212 13.7065 4.86078 13.5652L3.4348 12.1399C3.29346 11.9979 3.06377 11.9979 2.92242 12.1399L2.91331 12.1489C2.88669 12.1752 2.86479 12.2053 2.84778 12.238C2.84441 12.2445 2.84123 12.2511 2.83826 12.2578C2.83469 12.2659 2.83139 12.274 2.82838 12.2823L2.02251 14.5142C1.91763 14.8025 2.19748 15.0824 2.48586 14.9775L4.71829 14.1716C4.73555 14.1653 4.75233 14.1577 4.76846 14.1489C4.78023 14.1426 4.79164 14.1355 4.80264 14.1278C4.81989 14.1158 4.83612 14.1023 4.85109 14.0873ZM13.6214 5.31726L5.48447 13.4541C5.38472 13.5538 5.22343 13.5538 5.1237 13.4541L3.54611 11.8765C3.44638 11.7767 3.44638 11.6155 3.54611 11.5157L11.6837 3.37952C11.7828 3.27979 11.9447 3.27979 12.0439 3.37952L13.6214 4.95642C13.7212 5.05615 13.7212 5.21753 13.6214 5.31726ZM14.1688 4.76941L14.9256 4.01257C15.0248 3.91284 15.0248 3.75146 14.9256 3.65173L13.3481 2.07483C13.2483 1.9751 13.087 1.9751 12.9873 2.07483L12.2304 2.83167C12.1307 2.9314 12.1307 3.09265 12.2304 3.19238L13.808 4.76941C13.9077 4.86914 14.069 4.86914 14.1688 4.76941Z" fill="white"/>
</svg>
