<svg width="17" height="17" viewBox="0 0 17 17" fill="none" xmlns="http://www.w3.org/2000/svg">
<path fill-rule="evenodd" clip-rule="evenodd" d="M3.74102 15.7938L3.72835 15.8064C3.67916 15.8556 3.61953 15.8929 3.55469 15.9167L0.635355 16.9706C0.258233 17.1077 -0.107709 16.7418 0.0294262 16.3647L1.08328 13.4461C1.10713 13.3805 1.14439 13.3209 1.19433 13.2717L1.20625 13.2598C1.39109 13.0742 1.69144 13.0742 1.87628 13.2598L3.74102 15.1238C3.92585 15.3086 3.92585 15.6089 3.74102 15.7938" fill="#FFC832"/>
<path fill-rule="evenodd" clip-rule="evenodd" d="M15.1972 4.33785L4.55653 14.9783C4.42611 15.1087 4.21519 15.1087 4.08476 14.9783L2.02177 12.9154C1.89134 12.7849 1.89134 12.574 2.02177 12.4436L12.6632 1.80387C12.7928 1.67345 13.0045 1.67345 13.1342 1.80387L15.1972 3.86608C15.3276 3.99651 15.3276 4.20743 15.1972 4.33785" fill="#FFC832"/>
<path fill-rule="evenodd" clip-rule="evenodd" d="M16.9027 2.6318L15.913 3.62154C15.7826 3.75196 15.5716 3.75196 15.4412 3.62154L13.3782 1.55933C13.2478 1.4289 13.2478 1.21799 13.3782 1.08756L14.368 0.097819C14.4984 -0.0326063 14.7093 -0.0326063 14.8397 0.097819L16.9027 2.16003C17.0324 2.29046 17.0324 2.50137 16.9027 2.6318" fill="#FFC832"/>
</svg>
