<svg width="24" height="24" viewBox="0 0 24 24" fill="none" xmlns="http://www.w3.org/2000/svg">
<path fill-rule="evenodd" clip-rule="evenodd" d="M17.5609 -0.000488281L17.4729 1.69951C17.4275 2.58351 18.1046 3.34551 18.9794 3.39251L20.8289 3.48951L17.5609 -0.000488281Z" fill="#81D8E1"/>
<path fill-rule="evenodd" clip-rule="evenodd" d="M16.2728 9.1782H5.5791C5.30528 9.1782 5.08485 8.9542 5.08485 8.6782C5.08485 8.4022 5.30528 8.1782 5.5791 8.1782H16.2728C16.5456 8.1782 16.767 8.4022 16.767 8.6782C16.767 8.9542 16.5456 9.1782 16.2728 9.1782ZM5.08485 11.7412C5.08485 11.4652 5.30528 11.2412 5.5791 11.2412H11.3747C11.6475 11.2412 11.869 11.4652 11.869 11.7412C11.869 12.0182 11.6475 12.2412 11.3747 12.2412H5.5791C5.30528 12.2412 5.08485 12.0182 5.08485 11.7412ZM16.2728 15.3052H5.5791C5.30528 15.3052 5.08485 15.0812 5.08485 14.8052C5.08485 14.5292 5.30528 14.3052 5.5791 14.3052H16.2728C16.5456 14.3052 16.767 14.5292 16.767 14.8052C16.767 15.0812 16.5456 15.3052 16.2728 15.3052ZM11.3747 18.3682H5.5791C5.30528 18.3682 5.08485 18.1452 5.08485 17.8682C5.08485 17.5922 5.30528 17.3682 5.5791 17.3682H11.3747C11.6475 17.3682 11.869 17.5922 11.869 17.8682C11.869 18.1452 11.6475 18.3682 11.3747 18.3682ZM5.5791 5.1152H11.3747C11.6475 5.1152 11.869 5.3382 11.869 5.6152C11.869 5.8912 11.6475 6.1152 11.3747 6.1152H5.5791C5.30528 6.1152 5.08485 5.8912 5.08485 5.6152C5.08485 5.3382 5.30528 5.1152 5.5791 5.1152ZM18.8982 3.9512C17.7308 3.8902 16.8253 2.8722 16.8866 1.6912L16.9736 0.00219727H3.5932C2.70354 0.00219727 1.97699 0.738197 1.97699 1.6382V22.3652C1.97699 23.2642 2.70354 23.9992 3.5932 23.9992H19.2155C20.1042 23.9992 20.8317 23.2642 20.8317 22.3652V4.0542L18.8982 3.9512Z" fill="#81D8E1"/>
</svg>
