<svg width="24" height="24" viewBox="0 0 24 24" fill="none" xmlns="http://www.w3.org/2000/svg">
<path fill-rule="evenodd" clip-rule="evenodd" d="M17.7651 -0.000488281L17.6761 1.69951C17.6301 2.58351 18.3151 3.34551 19.2001 3.39251L21.0711 3.48951L17.7651 -0.000488281Z" fill="white"/>
<path fill-rule="evenodd" clip-rule="evenodd" d="M16.462 9.1782H5.644C5.367 9.1782 5.144 8.9542 5.144 8.6782C5.144 8.4022 5.367 8.1782 5.644 8.1782H16.462C16.738 8.1782 16.962 8.4022 16.962 8.6782C16.962 8.9542 16.738 9.1782 16.462 9.1782ZM5.144 11.7412C5.144 11.4652 5.367 11.2412 5.644 11.2412H11.507C11.783 11.2412 12.007 11.4652 12.007 11.7412C12.007 12.0182 11.783 12.2412 11.507 12.2412H5.644C5.367 12.2412 5.144 12.0182 5.144 11.7412ZM16.462 15.3052H5.644C5.367 15.3052 5.144 15.0812 5.144 14.8052C5.144 14.5292 5.367 14.3052 5.644 14.3052H16.462C16.738 14.3052 16.962 14.5292 16.962 14.8052C16.962 15.0812 16.738 15.3052 16.462 15.3052ZM11.507 18.3682H5.644C5.367 18.3682 5.144 18.1452 5.144 17.8682C5.144 17.5922 5.367 17.3682 5.644 17.3682H11.507C11.783 17.3682 12.007 17.5922 12.007 17.8682C12.007 18.1452 11.783 18.3682 11.507 18.3682ZM5.644 5.1152H11.507C11.783 5.1152 12.007 5.3382 12.007 5.6152C12.007 5.8912 11.783 6.1152 11.507 6.1152H5.644C5.367 6.1152 5.144 5.8912 5.144 5.6152C5.144 5.3382 5.367 5.1152 5.644 5.1152ZM19.118 3.9512C17.937 3.8902 17.021 2.8722 17.083 1.6912L17.171 0.00219727H3.635C2.735 0.00219727 2 0.738197 2 1.6382V22.3652C2 23.2642 2.735 23.9992 3.635 23.9992H19.439C20.338 23.9992 21.074 23.2642 21.074 22.3652V4.0542L19.118 3.9512Z" fill="white"/>
</svg>
