<svg width="33" height="33" viewBox="0 0 33 33" fill="none" xmlns="http://www.w3.org/2000/svg">
<path d="M28.0297 21.0305V28.5691H4.96703V21.0305H0.53833V30.7851C0.53833 32.0081 1.52909 33 2.75323 33H30.2424C31.4698 33 32.4617 32.0092 32.4617 30.7851V21.0305H28.0297Z" fill="white"/>
<path d="M16.0921 0.293927L9.74907 7.958C9.74907 7.958 8.78583 8.8673 9.83053 8.8673C10.8774 8.8673 13.4039 8.8673 13.4039 8.8673C13.4039 8.8673 13.4039 9.48487 13.4039 10.4239C13.4039 13.1265 13.4039 18.0329 13.4039 20.0332C13.4039 20.0332 13.2597 20.5748 14.0831 20.5748C14.9087 20.5748 18.5272 20.5748 19.1139 20.5748C19.7051 20.5748 19.6875 20.119 19.6875 20.119C19.6875 18.1749 19.6875 13.1011 19.6875 10.4954C19.6875 9.6478 19.6875 9.09407 19.6875 9.09407C19.6875 9.09407 21.7196 9.09407 22.9922 9.09407C24.2648 9.09407 23.306 8.14625 23.306 8.14625C23.306 8.14625 17.9074 0.981954 17.1544 0.225675C16.6128 -0.319243 16.0921 0.293927 16.0921 0.293927Z" fill="white"/>
</svg>
