<svg width="50" height="50" viewBox="0 0 50 50" fill="none" xmlns="http://www.w3.org/2000/svg">
<rect width="50" height="50" fill="#2DBECD"/>
<path d="M37.0297 29.0305V36.5691H13.967V29.0305H9.53833V38.7851C9.53833 40.0081 10.5291 41 11.7532 41H39.2424C40.4698 41 41.4617 40.0092 41.4617 38.7851V29.0305H37.0297Z" fill="white"/>
<path d="M25.0921 8.29393L18.7491 15.958C18.7491 15.958 17.7858 16.8673 18.8305 16.8673C19.8774 16.8673 22.4039 16.8673 22.4039 16.8673C22.4039 16.8673 22.4039 17.4849 22.4039 18.4239C22.4039 21.1265 22.4039 26.0329 22.4039 28.0332C22.4039 28.0332 22.2597 28.5748 23.0831 28.5748C23.9087 28.5748 27.5272 28.5748 28.1139 28.5748C28.7051 28.5748 28.6875 28.119 28.6875 28.119C28.6875 26.1749 28.6875 21.1011 28.6875 18.4954C28.6875 17.6478 28.6875 17.0941 28.6875 17.0941C28.6875 17.0941 30.7196 17.0941 31.9922 17.0941C33.2648 17.0941 32.306 16.1462 32.306 16.1462C32.306 16.1462 26.9074 8.98195 26.1544 8.22567C25.6128 7.68076 25.0921 8.29393 25.0921 8.29393Z" fill="white"/>
</svg>
