<svg width="24" height="24" viewBox="0 0 24 24" fill="none" xmlns="http://www.w3.org/2000/svg">
<path fill-rule="evenodd" clip-rule="evenodd" d="M15.1908 7.19131C15.1908 8.95331 13.7618 10.3813 11.9998 10.3813C10.2378 10.3813 8.80881 8.95331 8.80881 7.19131C8.80881 5.42831 10.2378 4.00031 11.9998 4.00031C13.7618 4.00031 15.1908 5.42831 15.1908 7.19131Z" fill="white"/>
<path fill-rule="evenodd" clip-rule="evenodd" d="M22.0794 9.15319C22.0794 10.5322 20.9614 11.6502 19.5824 11.6502C18.2034 11.6502 17.0844 10.5322 17.0844 9.15319C17.0844 7.77419 18.2034 6.65619 19.5824 6.65619C20.9614 6.65619 22.0794 7.77419 22.0794 9.15319Z" fill="white"/>
<path fill-rule="evenodd" clip-rule="evenodd" d="M6.91489 9.15319C6.91489 10.5322 5.79689 11.6502 4.41789 11.6502C3.03889 11.6502 1.91989 10.5322 1.91989 9.15319C1.91989 7.77419 3.03889 6.65619 4.41789 6.65619C5.79689 6.65619 6.91489 7.77419 6.91489 9.15319Z" fill="white"/>
<path fill-rule="evenodd" clip-rule="evenodd" d="M5.69131 15.7792C5.69131 14.7212 6.0823 13.7512 6.73131 12.9872C6.2533 12.7722 5.72131 12.6482 5.15731 12.6482H3.67831C1.64731 12.6482 0.000305176 14.2092 0.000305176 16.1342V18.6102H5.69131V15.7792Z" fill="white"/>
<path fill-rule="evenodd" clip-rule="evenodd" d="M17.6449 19.2743V16.1113C17.6449 13.6513 15.5409 11.6573 12.9449 11.6573H11.0549C8.45889 11.6573 6.35489 13.6513 6.35489 16.1113V19.2743H17.6449Z" fill="white"/>
<path fill-rule="evenodd" clip-rule="evenodd" d="M20.3221 12.6483H18.8431C18.2791 12.6483 17.7461 12.7723 17.2681 12.9873C17.9181 13.7513 18.3091 14.7213 18.3091 15.7793V18.6103H24.0001V16.1343C24.0001 14.2093 22.3531 12.6483 20.3221 12.6483Z" fill="white"/>
</svg>
