<svg width="135" height="112" viewBox="0 0 135 112" fill="none" xmlns="http://www.w3.org/2000/svg">
<g clip-path="url(#clip0)">
<path d="M68.5482 112.283C95.3074 112.283 117 108.905 117 104.738C117 100.572 95.3074 97.1943 68.5482 97.1943C41.7889 97.1943 20.0962 100.572 20.0962 104.738C20.0962 108.905 41.7889 112.283 68.5482 112.283Z" fill="#DBDBDB"/>
<path d="M44.316 102.805C44.316 102.805 50.364 99.207 50.364 99.0237C50.364 98.8405 50.5021 91.8221 50.5021 91.8221L42.3921 92.097L43.4922 102.464L44.316 102.805Z" fill="#A6A5A5"/>
<path d="M53.4165 41.6755L52.9588 50.0416L85.1311 50.1548L87.764 54.9693L43.2261 56.9167L44.4859 39.8413L53.3016 39.4981" fill="#A6A5A5"/>
<path d="M51.9286 57.6047L51.0116 69.4092L88.681 69.2943L88.7941 73.3057L43.2261 73.6489L44.4859 56.5735L53.3016 56.2303" fill="#A6A5A5"/>
<path d="M50.8983 73.3057L49.9813 85.1102L89.9391 85.2252L90.8561 90.8392L43.1128 90.3811L43.4556 72.2746L52.2713 71.9297" fill="#A6A5A5"/>
<path d="M42.876 38.8201C42.876 38.8201 48.6227 34.2789 53.6605 33.5909C53.6605 33.5909 86.7315 32.6047 91.3099 33.979L100.237 97.696L94.3023 102.805L85.8145 39.5015L42.876 38.8201Z" fill="#6CD3D8"/>
<path fill-rule="evenodd" clip-rule="evenodd" d="M42.876 38.8202C42.876 38.8202 74.3076 36.2197 87.2891 38.8202L94.2973 102.805H91.2084L89.3561 92.8883L44.4304 92.6284L44.3156 102.805H41.0586L42.876 38.8202ZM84.4246 42.2002C84.4246 42.2002 63.21 39.868 46.8468 42.2002L45.993 54.9393H85.4632L84.4246 42.2002ZM45.9799 58.491L85.7163 57.9713L87.6635 72.1313L45.464 71.8715L45.9799 58.491ZM45.2008 75.0832L44.5518 89.7697L89.4774 89.8997L87.5302 75.603L45.2008 75.0832Z" fill="#CACACA"/>
<path d="M34.7307 98.5673L33.2778 98.6873C33.2104 98.8112 33.1547 98.9411 33.1114 99.0754C33.0847 99.5102 33.0098 99.5152 33.7438 99.5485C33.7222 99.4552 33.7055 99.3453 33.7521 99.317C33.7987 99.2887 33.847 99.4353 33.8736 99.5535L34.1532 99.5669C34.6758 99.5952 36.0871 99.7118 36.4832 99.5835C36.7528 99.5036 34.9121 98.7672 34.7307 98.5673Z" fill="#172B4D"/>
<path d="M32.3498 98.8488L30.8919 98.9038C30.8214 99.0252 30.7624 99.1529 30.7155 99.2853C30.6689 99.7184 30.594 99.7201 31.3263 99.785C31.308 99.6917 31.298 99.5801 31.3446 99.5551C31.3912 99.5302 31.4345 99.6784 31.4561 99.7967L31.7357 99.8234C32.2566 99.875 33.6613 100.053 34.0657 99.9416C34.3286 99.875 32.5212 99.0521 32.3498 98.8488Z" fill="#172B4D"/>
<path d="M32.9588 75.3964C32.546 75.4248 31.6423 75.2698 31.5042 73.9105C31.366 72.5511 32.9271 72.5994 34.0006 71.988C35.0741 71.3766 34.0123 71.2317 34.2486 71.6548C34.4849 72.078 34.9759 71.1851 34.886 71.9231C34.8144 72.5045 35.3503 72.8593 34.9476 73.0592C34.7695 73.1475 34.8261 73.1392 34.6696 73.3624C34.3368 73.8405 34.6696 74.4136 34.6696 74.4136C34.7296 74.7467 33.9407 75.0799 33.7942 74.8584C33.5629 74.5152 33.6411 74.0987 33.3765 74.1454C33.1551 74.1837 32.7724 74.6451 33.1452 74.875C33.9573 75.3664 32.9588 75.3964 32.9588 75.3964Z" fill="#172B4D"/>
<path fill-rule="evenodd" clip-rule="evenodd" d="M34.3781 72.088C34.359 72.2886 34.2947 72.4822 34.19 72.6544C34.1035 72.7726 33.5027 73.1541 33.07 73.449C33.1247 73.6381 33.2348 73.8064 33.3862 73.9321C33.4095 74.0554 33.0983 74.062 33.0284 73.9921C32.9586 73.8905 32.8758 73.7987 32.7821 73.7189C32.7279 73.7035 32.6719 73.6951 32.6156 73.6939L32.3909 73.7405C32.0464 73.8655 32.0215 74.1187 32.1297 74.3819C32.2378 74.6451 32.609 74.79 32.9418 74.6851L33.0017 74.8517L33.2664 75.4914C33.5493 75.7957 33.957 75.8268 34.4896 75.5847C35.2885 75.2215 35.3667 74.6717 35.3118 74.3402C35.2774 74.1214 34.9661 73.3707 34.3781 72.088Z" fill="white"/>
<path d="M33.187 83.9957C33.187 83.9957 33.5448 97.6077 33.7096 98.369L35.1758 98.3041C35.3073 97.8826 35.5303 89.7797 35.6069 88.1138C35.7151 85.7632 35.8632 84.6154 35.6951 83.9974L33.187 83.9957Z" fill="#AEB3B5"/>
<path d="M31.1685 83.9375C31.1685 83.9375 31.3732 98.1275 31.4031 98.7889C31.4148 99.0654 33.2338 98.8272 33.1889 98.5523C33.1057 98.1192 33.793 85.8916 33.9711 85.57C34.1492 85.2485 35.647 84.9037 35.5988 83.9425L31.1685 83.9375Z" fill="#D2D3D4"/>
<path d="M31.7935 85.6683L30.3473 85.4018C30.4355 85.002 29.9079 84.0857 29.4835 83.3511C29.2638 82.9712 29.0375 82.5797 28.8461 82.1849C28.1437 80.7589 28.7379 79.8777 29.1989 79.5811L30.056 80.6706C30.0699 80.6635 30.0828 80.6545 30.0943 80.644C29.9994 80.7289 29.8979 81.0471 30.1925 81.6435C30.3589 81.995 30.5803 82.3682 30.79 82.7297C31.3991 83.8008 31.9799 84.807 31.7935 85.6683Z" fill="white"/>
<path d="M30.3906 77.6104C29.7681 78.4034 28.1654 79.5145 28.2803 79.9343C28.3951 80.3541 29.2988 81.0505 29.6949 81.2104C30.091 81.3703 31.6588 79.896 32.0083 79.3429C32.3578 78.7899 32.2463 77.7404 31.4241 77.089C31.1279 76.8491 30.5737 77.3772 30.3906 77.6104Z" fill="#BFBFBF"/>
<path d="M30.2008 85.5917C30.2008 85.5917 29.9312 86.2114 29.8131 86.3147C29.6949 86.418 29.3604 86.0198 29.2106 86.0531C29.0608 86.0864 29.0675 86.0665 29.1939 86.2197C29.3204 86.373 29.4269 86.7778 29.6616 86.9027C29.7772 86.8935 29.8924 86.926 29.9861 86.9944C30.0993 87.1026 30.4239 87.2292 30.552 87.1726C30.6802 87.116 31.1229 86.7961 31.3375 86.966C31.5522 87.136 32.1797 85.3485 31.6238 85.3185C31.2417 85.2879 30.863 85.2238 30.4921 85.1269L30.2008 85.5917Z" fill="white"/>
<path d="M34.6694 77.5521C34.6694 77.5521 35.0106 79.7894 35.2669 79.5328C35.7013 79.098 37.6751 79.2196 38.0346 79.0864C38.3941 78.9531 38.3824 77.5337 37.735 77.3721C36.2372 77.0007 34.6694 77.5521 34.6694 77.5521Z" fill="#BFBFBF"/>
<path opacity="0.11" d="M34.6694 77.5521C34.6694 77.5521 36.2638 77.7021 37.0261 79.1814L35.8611 79.278" fill="black"/>
<path d="M31.4242 77.089C31.4242 77.089 32.3679 79.3013 31.0914 80.4474C30.6337 80.8605 31.3061 83.9224 31.326 84.1623C31.346 84.4022 35.4069 84.2723 35.7414 84.2523C36.0759 84.2323 35.9594 77.7703 35.8096 77.4838C35.6598 77.1972 34.8343 76.6758 34.8343 76.6758L33.7792 77.3738L32.0683 76.2393L31.4242 77.089Z" fill="#BFBFBF"/>
<path d="M32.6261 76.421C32.8491 76.6192 33.1254 76.984 33.5931 77.1406C34.0607 77.2972 34.5999 76.7858 34.7115 76.5376C34.7664 76.4143 35.031 76.7142 35.0144 76.8458C34.9644 77.2589 34.0041 77.8986 33.5498 77.8453C32.9656 77.772 31.7424 76.4626 31.7424 76.4626C31.7093 76.4393 31.688 76.4028 31.6838 76.3626C31.6797 76.3223 31.6932 76.2823 31.7207 76.2527L31.8739 76.1727C31.9962 76.1036 32.1459 76.1036 32.2683 76.1727C32.2683 76.1727 32.5529 76.3493 32.6261 76.421Z" fill="#E1E1E1"/>
<path d="M37.416 78.8115C37.416 78.8115 37.5076 79.083 38.3979 78.8648Z" fill="white"/>
<path d="M38.2627 78.8948C37.5487 79.0431 37.3057 78.8448 37.3407 78.6816C37.3756 78.5183 37.7384 78.3684 37.7834 78.1951C37.8483 77.9336 38.0496 77.5837 37.998 77.5904C38.1366 77.5549 38.269 77.4987 38.3908 77.4238C38.6854 77.2572 39.7056 76.4509 40.0884 75.8862C40.7707 74.8867 40.9971 74.6984 41.2534 74.232L41.8742 75.1732C41.6928 75.2948 41.3316 76.1227 40.9921 76.5592C40.2016 77.5804 39.644 78.2701 39.1065 78.5583C38.8433 78.7115 38.559 78.8248 38.2627 78.8948V78.8948Z" fill="white"/>
<path d="M32.2127 74.9516C31.8 74.9799 31.5387 74.7051 31.3989 73.3457C31.2591 71.9863 32.1794 72.1563 33.2462 71.5432C34.313 70.9302 34.4861 70.6036 34.7208 71.0201C34.9554 71.4366 34.9604 71.8247 34.8123 72.1196C34.6642 72.4145 34.6226 72.3612 34.4212 72.6194C34.2997 72.7743 34.0717 72.691 33.9219 72.9142C33.5891 73.3923 33.9219 73.9654 33.9219 73.9654C33.9818 74.2986 33.4642 74.5485 33.3511 74.3119C33.1846 73.9521 32.9184 73.6456 32.6288 73.6955C32.4074 73.7355 32.0246 74.1953 32.3974 74.4252C32.5522 74.5202 32.8335 74.5485 32.9267 74.6451C33.1247 74.8633 32.2127 74.9516 32.2127 74.9516Z" fill="#172B4D"/>
<path d="M40.8023 75.1399C40.8023 75.1399 41.6345 75.7729 42.1471 75.2582C42.5964 74.8084 42.6097 74.7217 42.7462 74.6501C42.8827 74.5785 43.0541 74.252 42.8627 74.2653C42.6713 74.2786 42.4766 74.4452 42.5182 74.3519C42.6996 73.9538 43.4652 73.2974 43.4502 72.8526C43.4352 72.4078 43.0042 73.1708 42.7845 73.1858C42.1005 73.2241 42.0472 73.2291 41.5596 73.7522C41.0719 74.2753 40.9538 74.7517 40.769 74.94" fill="white"/>
<path d="M78.3809 81.3682L75.9504 82.2996C75.4224 82.5293 73.5558 83.5429 72.9803 83.5429L47.8599 82.2446V55.4323C47.8601 55.1457 47.9506 54.8664 48.1185 54.6342L49.9788 52.063L83.7499 51.9292L81.8638 54.7948C81.7182 55.0164 81.6403 55.2756 81.6397 55.5408L81.5979 78.979C80.9237 79.196 79.9223 78.7094 79.7434 79.1838L79.5524 79.3989C79.1951 80.3386 79.302 80.9677 78.3809 81.3682Z" fill="#6CD3D8"/>
<path d="M81.596 79.1555C81.596 79.1555 79.7928 83.2426 72.9824 83.5429C72.9824 83.5429 78.5975 80.8333 77.289 76.358C77.289 76.358 80.5538 77.5273 81.5955 79.156" fill="#259FA5"/>
<path d="M59.728 61.649C60.0259 61.4032 60.3476 61.1736 60.6932 60.9602C61.0468 60.7469 61.4242 60.5617 61.8253 60.4047C62.2266 60.2397 62.6555 60.1149 63.1122 60.0303C63.5769 59.9377 64.0772 59.8935 64.6132 59.8975C65.3652 59.9031 66.0404 60.0081 66.6389 60.2126C67.2454 60.4172 67.7592 60.709 68.1804 61.0882C68.6017 61.4593 68.9223 61.9097 69.1424 62.4394C69.3705 62.9611 69.4822 63.542 69.4774 64.1819C69.4728 64.7979 69.3849 65.3253 69.2136 65.764C69.0423 66.2027 68.8235 66.5851 68.557 66.9111C68.2986 67.2372 68.0125 67.5191 67.6987 67.7568C67.393 67.9865 67.0993 68.2043 66.8178 68.4102C66.5442 68.6162 66.3027 68.8184 66.0932 69.0168C65.8918 69.2153 65.7661 69.4384 65.7162 69.686L65.3677 71.3634L62.8238 71.3444L62.5742 69.4105C62.5666 69.3624 62.5589 69.3144 62.5513 69.2663C62.5516 69.2183 62.552 69.1703 62.5524 69.1223C62.555 68.7703 62.6413 68.463 62.8112 68.2002C62.9812 67.9375 63.195 67.6991 63.4526 67.485C63.7103 67.2629 63.9878 67.053 64.2853 66.8552C64.5829 66.6494 64.8605 66.4315 65.1182 66.2014C65.376 65.9633 65.59 65.7009 65.7601 65.4142C65.9303 65.1195 66.0169 64.7721 66.0199 64.3721C66.0235 63.8921 65.8663 63.5109 65.5484 63.2286C65.2385 62.9382 64.8076 62.791 64.2556 62.7869C63.8317 62.7837 63.4753 62.8251 63.1867 62.9109C62.906 62.9968 62.6613 63.095 62.4525 63.2054C62.2517 63.3079 62.075 63.4026 61.9223 63.4895C61.7697 63.5763 61.6174 63.6192 61.4654 63.6181C61.1214 63.6155 60.8665 63.4656 60.7007 63.1683L59.728 61.649ZM61.8315 75.6691C61.8337 75.3811 61.8877 75.1135 61.9935 74.8663C62.1073 74.6192 62.257 74.4043 62.4423 74.2217C62.6357 74.0391 62.8608 73.8968 63.1175 73.7947C63.3744 73.6846 63.6548 73.6307 63.9588 73.633C64.2547 73.6352 64.5303 73.6932 64.7855 73.8072C65.0407 73.9131 65.2636 74.0587 65.4542 74.2442C65.6449 74.4296 65.7912 74.6467 65.8934 74.8955C66.0035 75.1443 66.0575 75.4127 66.0554 75.7007C66.0532 75.9887 65.9952 76.2603 65.8813 76.5154C65.7755 76.7626 65.6259 76.9775 65.4325 77.1601C65.2391 77.3426 65.0141 77.485 64.7573 77.587C64.5005 77.6891 64.2241 77.7391 63.9281 77.7369C63.6242 77.7346 63.3446 77.6805 63.0893 77.5746C62.8341 77.4687 62.6112 77.323 62.4206 77.1376C62.238 76.9522 62.0916 76.7351 61.9814 76.4863C61.8793 76.2295 61.8294 75.9571 61.8315 75.6691Z" fill="#2DBECD"/>
</g>
<path d="M0 0H135V112H0V0Z" fill="white" fill-opacity="0.5"/>
<defs>
<clipPath id="clip0">
<rect x="16" y="19" width="113" height="93" fill="white"/>
</clipPath>
</defs>
</svg>
