<svg width="135" height="111" viewBox="0 0 135 111" fill="none" xmlns="http://www.w3.org/2000/svg">
<g clip-path="url(#clip0)">
<path d="M67.5 110C104.779 110 135 105.299 135 99.5C135 93.701 104.779 89 67.5 89C30.2208 89 0 93.701 0 99.5C0 105.299 30.2208 110 67.5 110Z" fill="#DBDBDB"/>
<path d="M33.7418 96.8095C33.7418 96.8095 42.1675 91.8013 42.1675 91.5463C42.1675 91.2912 42.3599 81.523 42.3599 81.523L31.0615 81.9056L32.5941 96.3342L33.7418 96.8095Z" fill="#A6A5A5"/>
<path d="M46.4197 11.7288L45.7821 23.3728L90.6023 23.5305L94.2703 30.2312L32.2231 32.9416L33.9783 9.17608L46.2597 8.69846" fill="#A6A5A5"/>
<path d="M44.3469 33.8992L43.0694 50.3287L95.5478 50.1687L95.7055 55.7519L32.2231 56.2295L33.9783 32.464L46.2597 31.9864" fill="#A6A5A5"/>
<path d="M42.9112 55.7519L41.6337 72.1814L97.3001 72.3414L98.5777 80.155L32.0649 79.5174L32.5426 54.3167L44.824 53.8367" fill="#A6A5A5"/>
<path d="M31.7354 7.7548C31.7354 7.7548 39.7414 1.43432 46.7597 0.476748C46.7597 0.476748 92.8319 -0.895856 99.2103 1.01698L111.647 89.6983L103.379 96.8094L91.5544 8.7031L31.7354 7.7548Z" fill="#6CD3D8"/>
<path fill-rule="evenodd" clip-rule="evenodd" d="M31.7355 7.75479C31.7355 7.75479 75.5239 4.13548 93.6088 7.75479L103.372 96.8094H99.069L96.4884 83.0069L33.901 82.6452L33.741 96.8094H29.2036L31.7355 7.75479ZM89.6185 12.4592C89.6185 12.4592 60.0637 9.21319 37.2675 12.4592L36.0781 30.1895H91.0652L89.6185 12.4592ZM36.0597 35.1327L91.4178 34.4093L94.1305 54.1173L35.341 53.7556L36.0597 35.1327ZM34.9744 58.2258L34.0702 78.6665L96.6576 78.8473L93.9448 58.9492L34.9744 58.2258Z" fill="#CACACA"/>
<path d="M20.3886 90.9109L18.3645 91.0779C18.2706 91.2504 18.193 91.4312 18.1327 91.6181C18.0956 92.2233 17.9912 92.2302 19.0137 92.2766C18.9836 92.1468 18.9604 91.9937 19.0253 91.9543C19.0902 91.9149 19.1575 92.1189 19.1946 92.2836L19.5841 92.3021C20.3121 92.3415 22.2783 92.5038 22.8301 92.3253C23.2057 92.214 20.6414 91.1892 20.3886 90.9109Z" fill="#172B4D"/>
<path d="M17.071 91.3028L15.0399 91.3793C14.9417 91.5483 14.8595 91.7261 14.7942 91.9103C14.7292 92.5131 14.6249 92.5154 15.6451 92.6058C15.6196 92.476 15.6057 92.3207 15.6706 92.2859C15.7355 92.2511 15.7958 92.4575 15.8259 92.6221L16.2154 92.6592C16.9412 92.731 18.898 92.9791 19.4614 92.8238C19.8278 92.731 17.3098 91.5857 17.071 91.3028Z" fill="#172B4D"/>
<path d="M17.9192 58.6617C17.3442 58.7012 16.0852 58.4855 15.8928 56.5936C15.7004 54.7016 17.8752 54.7688 19.3707 53.9179C20.8661 53.067 19.3869 52.8653 19.7161 53.4542C20.0454 54.0431 20.7293 52.8004 20.6041 53.8275C20.5044 54.6367 21.251 55.1305 20.6899 55.4088C20.4418 55.5316 20.5207 55.5201 20.3027 55.8307C19.839 56.4962 20.3027 57.2938 20.3027 57.2938C20.3862 57.7575 19.2872 58.2212 19.0832 57.9128C18.7609 57.4352 18.8698 56.8556 18.5012 56.9205C18.1928 56.9738 17.6596 57.6161 18.1789 57.936C19.3104 58.62 17.9192 58.6617 17.9192 58.6617Z" fill="#172B4D"/>
<path fill-rule="evenodd" clip-rule="evenodd" d="M19.8972 54.057C19.8706 54.3362 19.781 54.6057 19.6352 54.8453C19.5146 55.0099 18.6776 55.5409 18.0748 55.9513C18.151 56.2145 18.3045 56.4487 18.5153 56.6237C18.5478 56.7953 18.1142 56.8045 18.0168 56.7072C17.9197 56.5659 17.8043 56.438 17.6737 56.3269C17.5982 56.3055 17.5203 56.2939 17.4418 56.2921L17.1288 56.357C16.6489 56.5309 16.6141 56.8834 16.7648 57.2497C16.9155 57.616 17.4326 57.8178 17.8963 57.6717L17.9797 57.9035L18.3484 58.7939C18.7426 59.2174 19.3106 59.2607 20.0525 58.9237C21.1655 58.4183 21.2744 57.6531 21.1979 57.1917C21.15 56.8872 20.7164 55.8423 19.8972 54.057Z" fill="white"/>
<path d="M18.2373 70.6302C18.2373 70.6302 18.7358 89.5754 18.9653 90.635L21.008 90.5446C21.1912 89.958 21.5018 78.6804 21.6085 76.3618C21.7592 73.0903 21.9656 71.4928 21.7314 70.6326L18.2373 70.6302Z" fill="#AEB3B5"/>
<path d="M15.4248 70.5491C15.4248 70.5491 15.71 90.2989 15.7517 91.2193C15.768 91.6042 18.3021 91.2727 18.2395 90.8901C18.1236 90.2873 19.0812 73.2688 19.3293 72.8213C19.5774 72.3739 21.6641 71.8939 21.5968 70.5561L15.4248 70.5491Z" fill="#D2D3D4"/>
<path d="M16.2961 72.9581L14.2813 72.5872C14.4041 72.0307 13.6691 70.7555 13.0779 69.733C12.7719 69.2044 12.4565 68.6595 12.1899 68.11C11.2115 66.1253 12.0392 64.8987 12.6814 64.486L13.8755 66.0024C13.8948 65.9924 13.9128 65.98 13.9288 65.9653C13.7967 66.0835 13.6552 66.5264 14.0656 67.3564C14.2975 67.8457 14.6059 68.365 14.898 68.8682C15.7466 70.359 16.5558 71.7594 16.2961 72.9581Z" fill="white"/>
<path d="M14.3422 61.7431C13.475 62.8468 11.2422 64.3933 11.4022 64.9776C11.5622 65.5618 12.8212 66.531 13.373 66.7536C13.9248 66.9762 16.1089 64.9242 16.5958 64.1545C17.0827 63.3847 16.9274 61.924 15.782 61.0174C15.3693 60.6835 14.5972 61.4185 14.3422 61.7431Z" fill="#BFBFBF"/>
<path d="M14.0775 72.8515C14.0775 72.8515 13.7019 73.714 13.5373 73.8577C13.3727 74.0015 12.9066 73.4474 12.698 73.4937C12.4893 73.5401 12.4986 73.5123 12.6748 73.7256C12.851 73.9389 12.9994 74.5023 13.3263 74.6762C13.4874 74.6634 13.6478 74.7086 13.7784 74.8037C13.9361 74.9544 14.3882 75.1307 14.5667 75.0518C14.7453 74.973 15.362 74.5278 15.6611 74.7643C15.9602 75.0008 16.8343 72.513 16.0599 72.4712C15.5275 72.4287 15 72.3395 14.4833 72.2046L14.0775 72.8515Z" fill="white"/>
<path d="M20.3027 61.6619C20.3027 61.6619 20.778 64.7758 21.1351 64.4187C21.7402 63.8136 24.4901 63.9828 24.9909 63.7974C25.4917 63.6119 25.4755 61.6364 24.5735 61.4115C22.4868 60.8945 20.3027 61.6619 20.3027 61.6619Z" fill="#BFBFBF"/>
<path opacity="0.11" d="M20.3027 61.662C20.3027 61.662 22.5239 61.8707 23.5858 63.9296L21.9628 64.064" fill="black"/>
<path d="M15.7822 61.0174C15.7822 61.0174 17.0969 64.0965 15.3185 65.6917C14.6809 66.2667 15.6176 70.5282 15.6454 70.8621C15.6733 71.196 21.3306 71.0151 21.7966 70.9873C22.2626 70.9595 22.1003 61.9657 21.8917 61.5669C21.683 61.1681 20.533 60.4424 20.533 60.4424L19.063 61.4139L16.6795 59.8349L15.7822 61.0174Z" fill="#BFBFBF"/>
<path d="M17.4558 60.0877C17.7665 60.3636 18.1514 60.8714 18.8029 61.0893C19.4544 61.3072 20.2056 60.5954 20.361 60.25C20.4375 60.0784 20.8061 60.4957 20.783 60.6789C20.7134 61.2539 19.3756 62.1443 18.7426 62.0701C17.9288 61.968 16.2247 60.1456 16.2247 60.1456C16.1786 60.1132 16.1489 60.0624 16.1431 60.0064C16.1373 59.9504 16.1561 59.8946 16.1945 59.8535L16.4078 59.7422C16.5783 59.6459 16.7868 59.6459 16.9573 59.7422C16.9573 59.7422 17.3538 59.988 17.4558 60.0877Z" fill="#E1E1E1"/>
<path d="M24.1289 63.4148C24.1289 63.4148 24.2564 63.7927 25.4969 63.489Z" fill="white"/>
<path d="M25.309 63.5307C24.3144 63.7371 23.9759 63.4612 24.0245 63.234C24.0732 63.0067 24.5787 62.7981 24.6413 62.5569C24.7317 62.1929 25.0123 61.706 24.9404 61.7153C25.1334 61.6658 25.3178 61.5877 25.4876 61.4834C25.8979 61.2516 27.3192 60.1294 27.8525 59.3434C28.8031 57.9522 29.1184 57.6902 29.4755 57.041L30.3403 58.351C30.0876 58.5203 29.5845 59.6726 29.1115 60.2801C28.0102 61.7014 27.2334 62.6613 26.4845 63.0624C26.1179 63.2756 25.7218 63.4334 25.309 63.5307V63.5307Z" fill="white"/>
<path d="M16.8805 58.0427C16.3055 58.0821 15.9415 57.6995 15.7467 55.8075C15.5519 53.9156 16.8341 54.1521 18.3203 53.2988C19.8065 52.4456 20.0476 51.9911 20.3746 52.5708C20.7015 53.1504 20.7084 53.6907 20.5021 54.1011C20.2957 54.5114 20.2378 54.4372 19.9572 54.7966C19.788 55.0123 19.4703 54.8963 19.2616 55.207C18.7979 55.8725 19.2616 56.67 19.2616 56.67C19.3451 57.1338 18.624 57.4816 18.4664 57.1523C18.2345 56.6515 17.8635 56.2249 17.4601 56.2944C17.1517 56.3501 16.6185 56.99 17.1378 57.31C17.3535 57.4421 17.7453 57.4816 17.8751 57.616C18.151 57.9198 16.8805 58.0427 16.8805 58.0427Z" fill="#172B4D"/>
<path d="M28.8467 58.3047C28.8467 58.3047 30.0059 59.1857 30.7201 58.4693C31.3461 57.8433 31.3646 57.7227 31.5548 57.623C31.7449 57.5233 31.9837 57.0689 31.7171 57.0874C31.4504 57.106 31.1791 57.3378 31.2371 57.208C31.4898 56.6538 32.5564 55.7403 32.5355 55.1212C32.5146 54.5022 31.9141 55.5641 31.6081 55.585C30.6551 55.6383 30.581 55.6452 29.9016 56.3733C29.2223 57.1013 29.0577 57.7644 28.8003 58.0264" fill="white"/>
<path d="M81.198 66.9733L77.812 68.2696C77.0765 68.5893 74.4761 70 73.6742 70L38.6782 68.1931V30.8756C38.6785 30.4767 38.8046 30.0881 39.0385 29.7649L41.6302 26.1862L88.6778 26L86.0502 29.9884C85.8473 30.2967 85.7388 30.6576 85.738 31.0267L85.6798 63.6479C84.7405 63.95 83.3454 63.2727 83.0962 63.933L82.8301 64.2324C82.3323 65.5402 82.4813 66.4159 81.198 66.9733Z" fill="#6CD3D8"/>
<path d="M85.6781 63.8936C85.6781 63.8936 83.166 69.5821 73.6782 70C73.6782 70 81.5008 66.2288 79.6778 60C79.6778 60 84.2261 61.6275 85.6774 63.8943" fill="#259FA5"/>
<path d="M55.2622 39.4061C55.709 39.0375 56.1916 38.693 56.71 38.3729C57.2404 38.0529 57.8065 37.7751 58.4083 37.5396C59.0101 37.2921 59.6535 37.1048 60.3385 36.978C61.0356 36.8392 61.7861 36.7728 62.5901 36.7788C63.718 36.7872 64.7309 36.9447 65.6286 37.2515C66.5383 37.5583 67.3091 37.996 67.9409 38.5648C68.5727 39.1215 69.0537 39.7971 69.3838 40.5916C69.7259 41.3742 69.8934 42.2454 69.8863 43.2054C69.8794 44.1294 69.7475 44.9204 69.4906 45.5785C69.2336 46.2366 68.9053 46.8102 68.5057 47.2992C68.118 47.7883 67.6889 48.2111 67.2182 48.5676C66.7596 48.9122 66.3191 49.2389 65.8968 49.5478C65.4865 49.8567 65.1242 50.1601 64.81 50.4577C64.5078 50.7555 64.3193 51.0901 64.2445 51.4615L63.7217 53.9777L59.9058 53.9492L59.5314 51.0483C59.52 50.9762 59.5085 50.9041 59.4971 50.8321C59.4976 50.7601 59.4981 50.6881 59.4987 50.6161C59.5026 50.0881 59.6321 49.627 59.887 49.2329C60.142 48.8388 60.4626 48.4812 60.849 48.1601C61.2355 47.827 61.6519 47.5121 62.0981 47.2154C62.5444 46.9067 62.9609 46.5798 63.3475 46.2347C63.7342 45.8776 64.0551 45.4839 64.3103 45.0538C64.5656 44.6117 64.6955 44.0907 64.7 43.4907C64.7054 42.7707 64.4696 42.1989 63.9928 41.7754C63.528 41.3399 62.8817 41.1191 62.0537 41.1129C61.4177 41.1081 60.8832 41.1701 60.4502 41.2989C60.0293 41.4278 59.6622 41.575 59.3489 41.7407C59.0478 41.8945 58.7827 42.0365 58.5537 42.1668C58.3247 42.2971 58.0963 42.3614 57.8683 42.3597C57.3523 42.3558 56.9699 42.131 56.7213 41.6851L55.2622 39.4061ZM58.4173 60.4363C58.4206 60.0043 58.5016 59.6029 58.6603 59.2321C58.8311 58.8613 59.0555 58.539 59.3336 58.265C59.6236 57.9912 59.9612 57.7777 60.3464 57.6246C60.7316 57.4595 61.1522 57.3786 61.6082 57.382C62.0522 57.3853 62.4656 57.4724 62.8483 57.6433C63.2311 57.8021 63.5655 58.0206 63.8514 58.2988C64.1374 58.5769 64.3569 58.9026 64.5102 59.2757C64.6754 59.649 64.7564 60.0516 64.7532 60.4836C64.7499 60.9156 64.6629 61.3229 64.492 61.7057C64.3333 62.0765 64.1088 62.3988 63.8188 62.6727C63.5287 62.9465 63.1911 63.16 62.806 63.3131C62.4208 63.4662 62.0063 63.5411 61.5623 63.5378C61.1063 63.5344 60.6869 63.4533 60.3041 63.2944C59.9212 63.1356 59.5868 62.9171 59.3009 62.6389C59.027 62.3609 58.8074 62.0352 58.6422 61.662C58.4891 61.2768 58.4141 60.8683 58.4173 60.4363Z" fill="#2DBECD"/>
<path d="M0 -1H135V111H0V-1Z" fill="white" fill-opacity="0.5"/>
</g>
<defs>
<clipPath id="clip0">
<rect width="135" height="111" fill="white"/>
</clipPath>
</defs>
</svg>
