<svg width="135" height="111" viewBox="0 0 135 111" fill="none" xmlns="http://www.w3.org/2000/svg">
<g clip-path="url(#clip0)">
<path d="M52.1844 37.4615C52.1844 37.4615 49.7004 37.2695 50.274 42.6121C50.8476 47.9546 52.0767 49.8205 52.0767 54.3975C52.0767 58.9745 79.5034 31.5267 79.5034 31.5267L77.7827 25.4115L52.1844 37.4615Z" fill="#259FA5"/>
<path opacity="0.4" d="M52.5664 86.2609L61.0391 90.2104L67.4164 101.233L70.8579 99.369L63.9374 89.9224V89.9224L86.9113 93.0619L89.7769 91.3435L65.7542 88.0448L55.1791 84.9849V84.9849" fill="#DBDBDB"/>
<path d="M50.0565 40.7228C50.4264 41.1723 52.3742 38.9903 52.9619 39.7863L79.0518 27.4578C79.0518 27.4578 77.9819 24.0912 75.1163 25.2383C72.3865 26.3317 49.9277 34.7599 49.9605 38.4027C49.9698 39.4562 49.93 40.5683 50.0565 40.7228Z" fill="#6CD3D8"/>
<path d="M50.6554 45.1687C50.6554 45.1687 48.9019 36.813 51.3577 37.7355C52.9825 38.3442 53.137 40.9007 53.137 40.9007L50.6554 45.1687Z" fill="#259FA5"/>
<path d="M55.4313 38.7983C55.4313 38.7983 52.9169 39.5288 52.8794 40.5003C52.6641 46.379 51.7089 67.2505 48.9158 69.5448C45.6663 72.2208 64.3956 64.1929 64.3956 64.1929L77.7894 28.8577L55.4313 38.7983Z" fill="#259FA5"/>
<path d="M65.293 76.1891L67.4164 101.233L70.8579 99.369L69.0201 81.9226L80.7751 76.1891L86.9113 93.0619L89.7769 91.3435L81.6343 69.0205L65.293 76.1891V76.1891Z" fill="#CACACA"/>
<path d="M58.4029 52.5082L52.5664 86.2608L55.1791 84.9848L63.7548 49.4506L58.4029 52.5082V52.5082Z" fill="#CACACA"/>
<path d="M86.3939 68.0396L60.0206 81.801L52.9644 39.777L79.0543 27.4485L86.3939 68.0396V68.0396Z" fill="#6CD3D8"/>
<path d="M61.2469 78.006L61.2165 77.8093L55.291 41.1139L55.5743 41.0694L61.467 77.5682L83.4599 66.0028L83.5934 66.2557L61.2469 78.006V78.006Z" fill="#D8E4EE"/>
<path d="M48.1202 102.574L45.1657 102.808C45.0338 103.061 44.9256 103.325 44.8426 103.597C44.7887 104.48 44.6342 104.489 46.1255 104.559C46.0811 104.37 46.0483 104.145 46.1419 104.091C46.2356 104.037 46.3362 104.325 46.3901 104.574L46.959 104.602C48.0219 104.66 50.8898 104.894 51.7092 104.634C52.229 104.475 48.4878 102.982 48.1202 102.574Z" fill="#172B4D"/>
<path d="M43.2783 103.148L40.3168 103.26C40.1736 103.507 40.0537 103.766 39.9586 104.035C39.8649 104.915 39.7127 104.918 41.1994 105.053C41.1619 104.864 41.1409 104.637 41.2368 104.585C41.3328 104.534 41.4195 104.836 41.471 105.077L42.0375 105.131C43.0981 105.236 45.952 105.599 46.7807 105.365C47.3005 105.229 43.6295 103.562 43.2783 103.148Z" fill="#172B4D"/>
<path d="M44.5124 55.5214C43.672 55.5799 41.8365 55.2662 41.5555 52.5059C41.2746 49.7457 44.4469 49.8464 46.6125 48.6009C48.778 47.3554 46.6359 47.0674 47.1158 47.9126C47.5957 48.7577 48.5931 46.9597 48.4105 48.4557C48.2653 49.6263 49.3469 50.3568 48.5369 50.7641C48.174 50.9444 48.3028 50.9257 47.9727 51.3798C47.2914 52.3514 47.9563 53.5126 47.9563 53.5126C48.078 54.1892 46.4767 54.8588 46.1793 54.4163C45.7111 53.714 45.868 52.8735 45.3318 52.9672C44.8823 53.0468 44.1051 53.9856 44.8636 54.4468C46.5329 55.4675 44.5124 55.5214 44.5124 55.5214Z" fill="#172B4D"/>
<path fill-rule="evenodd" clip-rule="evenodd" d="M47.3938 48.8116C47.3557 49.2195 47.2252 49.6135 47.0122 49.9634C46.8366 50.1976 45.6075 50.9795 44.7366 51.5765C44.848 51.9606 45.0723 52.3024 45.3804 52.5574C45.4272 52.808 44.7974 52.822 44.6546 52.6792C44.5126 52.4738 44.3441 52.2881 44.1536 52.1267C44.0439 52.0953 43.9306 52.078 43.8165 52.0752L43.3482 52.1688C42.6459 52.424 42.5967 52.9391 42.8168 53.4705C43.0369 54.0019 43.7907 54.2993 44.4673 54.0886L44.5891 54.4351L45.1275 55.7321C45.7019 56.3564 46.5307 56.4196 47.6138 55.9217C49.2386 55.1842 49.3955 54.0698 49.2854 53.3956C49.2261 52.9461 48.5956 51.4181 47.3938 48.8116Z" fill="white"/>
<path d="M44.9824 72.9911C44.9824 72.9911 45.7105 100.629 46.0453 102.174L49.0256 102.043C49.2925 101.186 49.7467 84.7343 49.9036 81.3514C50.1236 76.5777 50.4256 74.2389 50.0838 72.9934L44.9824 72.9911Z" fill="#AEB3B5"/>
<path d="M40.8789 72.8717C40.8789 72.8717 41.2956 101.68 41.3471 103.024C41.3729 103.585 45.093 103.101 44.9759 102.541C44.8074 101.663 46.2051 76.84 46.5656 76.1821C46.9261 75.5243 49.972 74.8172 49.876 72.8764L40.8789 72.8717Z" fill="#D2D3D4"/>
<path d="M47.9956 59.9062C47.9956 59.9062 48.698 64.448 49.2107 63.9283C50.0956 63.0433 54.1037 63.2915 54.8295 63.0199C55.5552 62.7484 55.5318 59.8687 54.2184 59.541C51.1796 58.7848 47.9956 59.9062 47.9956 59.9062Z" fill="#BFBFBF"/>
<path opacity="0.05" d="M47.9956 59.9062C47.9956 59.9062 51.6993 60.3065 53.2468 63.3079L50.6716 63.439" fill="black"/>
<path d="M41.401 58.9651C41.401 58.9651 42.6457 62.3691 40.0588 64.6986C39.1223 65.5367 41.1669 72.8388 41.1997 73.3258C41.2325 73.8127 49.4921 73.5599 50.1734 73.506C50.8546 73.4522 50.6158 60.3463 50.3115 59.7657C50.0071 59.1851 48.3309 58.1269 48.3309 58.1269L46.1957 59.548L42.7121 57.2373L41.401 58.9651Z" fill="#BFBFBF"/>
<path d="M43.8571 57.6098C44.3113 58.0101 44.8778 58.7546 45.8213 59.0706C46.7648 59.3867 47.8675 58.3519 48.0946 57.8462C48.207 57.598 48.7431 58.2021 48.7103 58.4713C48.6073 59.3094 46.6595 60.6111 45.7347 60.4941C44.5454 60.3442 42.0614 57.6847 42.0614 57.6847C41.995 57.6368 41.9523 57.5626 41.9443 57.4811C41.9362 57.3996 41.9635 57.3186 42.0193 57.2586L42.3306 57.0947C42.5797 56.9536 42.8846 56.9536 43.1337 57.0947C43.1337 57.0947 43.6932 57.4669 43.8571 57.6098Z" fill="#BFBFBF"/>
<path d="M43.0027 54.6317C42.1622 54.6903 41.6308 54.1307 41.3499 51.3705C41.0689 48.6103 42.9372 48.9544 45.0957 47.7113C47.2543 46.4681 47.6148 45.8032 48.0924 46.6484C48.57 47.4935 48.5794 48.2872 48.2774 48.8795C47.9566 49.514 47.8911 49.3688 47.4814 49.8909C47.2332 50.2069 46.779 50.036 46.4536 50.4902C45.7723 51.4618 46.4372 52.623 46.4372 52.623C46.559 53.2996 45.5007 53.8077 45.2666 53.3254C44.9155 52.5926 44.3887 51.9675 43.8011 52.0752C43.3516 52.1571 42.5743 53.0936 43.3328 53.5548C43.6465 53.7468 44.2178 53.803 44.4098 54.002C44.8616 54.4468 43.0027 54.6317 43.0027 54.6317Z" fill="#172B4D"/>
<path d="M60.4585 55.0085C60.4585 55.0085 62.1465 56.2938 63.1907 55.2426C64.1061 54.3272 64.1271 54.154 64.4104 54.0065C64.6937 53.859 65.0355 53.1964 64.6445 53.2245C64.2536 53.2526 63.8579 53.5874 63.9422 53.4001C64.3121 52.5924 65.8666 51.2603 65.8385 50.3425C65.8104 49.4248 64.9325 50.9887 64.4994 51.0145C63.1087 51.0941 63.0034 51.1034 62.0084 52.164C61.0134 53.2245 60.7769 54.1984 60.4023 54.5754" fill="white"/>
<path d="M55.2977 62.6454C53.8486 62.9474 53.3522 62.5447 53.4248 62.2099C53.4974 61.8751 54.2349 61.5755 54.3238 61.2219C54.4573 60.6905 54.8646 59.9811 54.7616 59.9928C55.0441 59.9206 55.314 59.8061 55.5623 59.6534C56.1616 59.3256 58.2336 57.6774 59.0132 56.5326C60.3991 54.4981 60.8604 54.1212 61.366 53.1754L62.6279 55.0857C62.2604 55.3339 61.5229 57.0149 60.8369 57.8951C59.2309 59.9671 58.0978 61.3694 57.0045 61.9664C56.4719 62.2752 55.8969 62.504 55.2977 62.6454V62.6454Z" fill="white"/>
<path d="M42.1437 76.3833L39.2008 75.8425C39.3811 75.0301 38.3065 73.1712 37.445 71.6775C37.0001 70.9073 36.5413 70.1113 36.1503 69.3223C34.7222 66.4287 35.9279 64.64 36.8667 64.036L38.6085 66.2484C38.6365 66.2339 38.6625 66.2158 38.6858 66.1945C38.4938 66.3678 38.2854 67.0139 38.8871 68.2313C39.2383 68.9337 39.6761 69.7016 40.0998 70.4367C41.35 72.5953 42.53 74.6344 42.1437 76.3833Z" fill="white"/>
<path d="M39.2987 60.0164C38.0344 61.6248 34.7779 63.8817 35.012 64.7338C35.2461 65.586 37.0792 67.0001 37.8869 67.3232C38.6946 67.6463 41.8669 64.6566 42.588 63.5328C43.3091 62.4091 43.0726 60.2786 41.401 58.9559C40.7876 58.4806 39.6686 59.5482 39.2987 60.0164Z" fill="#BFBFBF"/>
<path d="M38.9126 76.2311C38.9126 76.2311 38.3648 77.4907 38.1236 77.6967C37.8825 77.9027 37.2012 77.0997 36.9015 77.1652C36.6019 77.2308 36.6112 77.191 36.8664 77.5C37.1216 77.8091 37.3346 78.6332 37.8146 78.8883C38.0492 78.8702 38.2825 78.9367 38.4724 79.0756C38.7066 79.2957 39.3597 79.5439 39.622 79.4385C39.8842 79.3332 40.7925 78.673 41.2186 79.0218C41.6447 79.3706 42.93 75.7442 41.8016 75.6763C41.0253 75.6143 40.256 75.4843 39.5026 75.2876L38.9126 76.2311Z" fill="white"/>
<rect x="-3" y="-11" width="142" height="142" fill="white" fill-opacity="0.5"/>
</g>
<defs>
<clipPath id="clip0">
<rect width="135" height="111" fill="white"/>
</clipPath>
</defs>
</svg>
