<svg width="135" height="112" viewBox="0 0 135 112" fill="none" xmlns="http://www.w3.org/2000/svg">
<g clip-path="url(#clip0)">
<path d="M131.336 112H3.40797C0.864926 112 0 107.756 0 102.376L0.0817312 100.662L14.6966 49.2807C15.5672 46.0397 17.321 44 19.2331 44H117.925C119.97 44 121.816 46.3233 122.615 49.9021L134.151 101.575L134.626 100.387C135.579 107.29 133.774 112 131.336 112Z" fill="#C1C0BF"/>
<path d="M131.474 108.656H3.41171C0.865999 108.656 -0.780478 103.798 0.377347 99.7027L14.7122 49.0199C15.5837 45.9378 17.3394 44 19.2535 44H118.05C120.096 44 121.945 46.2095 122.744 49.6104L134.611 100.098C135.564 104.156 133.915 108.656 131.474 108.656Z" fill="#DDDDDD"/>
<path opacity="0.18" d="M108.058 106.785C117.888 106.785 125.856 105.146 125.856 103.125C125.856 101.105 117.888 99.4663 108.058 99.4663C98.2283 99.4663 90.2598 101.105 90.2598 103.125C90.2598 105.146 98.2283 106.785 108.058 106.785Z" fill="#B7CEE1"/>
<path opacity="0.59" d="M81.6043 47.9743L17.7618 66.3584V65.9745C17.7618 65.9745 14.0216 67.8089 10.5176 68.0564C10.5176 68.0564 11.3236 68.6625 17.7955 72.275L59.0722 94.794L132.026 74.8814L81.6043 47.9743Z" fill="#B7CEE1"/>
<path d="M132.026 74.4073L81.8123 46.8596L18.209 65.6885C17.3441 65.8548 15.5958 65.8253 14.0933 63.5124C14.0933 63.5124 13.0626 66.0319 15.3506 69.0106L16.0947 70.4928L18.8988 72.0671C18.9998 72.1295 19.1029 72.1916 19.2083 72.2535V72.2391L59.3749 94.794L132.026 74.4073Z" fill="white"/>
<path opacity="0.12" d="M70.714 81.9522L68.7977 82.5317L49.5337 68.5641L51.5279 68.0399L70.714 81.9522V81.9522Z" fill="#123049"/>
<path opacity="0.12" d="M66.2551 81.9411L64.3214 82.5317L37.2715 63.0004L39.2838 62.4662L66.2551 81.9411V81.9411Z" fill="#123049"/>
<path d="M91.4102 59.6066L92.8523 101.32C92.8523 103.525 99.4438 105.311 107.574 105.311C115.704 105.311 122.296 103.525 122.296 101.32L123.738 59.6066H91.4102Z" fill="#2DBECD"/>
<path fill-rule="evenodd" clip-rule="evenodd" d="M112.513 80.7009C112.513 72.7556 116.808 66.3148 122.107 66.3148V66.3165C127.405 66.3165 131.575 70.1225 131.575 78.0678C131.575 86.0131 126.887 92.6136 121.591 92.6136C116.295 92.6136 112.513 88.6461 112.513 80.7009ZM127.204 72.4121C126.031 71.0742 124.221 70.3369 122.107 70.3369C118.296 70.3369 115.195 74.9862 115.195 80.7008C115.195 83.3151 115.71 85.2219 116.77 86.5308C117.861 87.878 119.528 88.5897 121.591 88.5897C125.481 88.5897 128.894 83.6722 128.894 78.0661C128.894 75.5577 128.341 73.709 127.204 72.4121Z" fill="#2DBECD"/>
<path d="M108.718 85.5902C96.682 74.7903 96.5822 63.9895 96.5822 63.9895V59.6066H91.4102L92.8122 101.32C92.8122 103.525 99.2205 105.311 107.125 105.311C110.573 105.311 113.736 104.971 116.207 104.405C116.21 104.404 120.751 96.3892 108.718 85.5902Z" fill="#6CD3D8"/>
<path d="M107.574 64.0655C116.501 64.0655 123.738 62.3187 123.738 60.1639C123.738 58.0091 116.501 56.2623 107.574 56.2623C98.647 56.2623 91.4102 58.0091 91.4102 60.1639C91.4102 62.3187 98.647 64.0655 107.574 64.0655Z" fill="#3A2C22"/>
<path d="M93.5767 61.836C96.376 60.7257 101.591 59.9781 107.573 59.9781C113.555 59.9781 118.771 60.7257 121.57 61.836C122.946 61.2893 123.738 60.6553 123.738 59.9781C123.738 57.926 116.501 56.2623 107.574 56.2623C98.6468 56.2623 91.4102 57.926 91.4102 59.9781C91.4085 60.6553 92.1999 61.2893 93.5767 61.836Z" fill="#259FA5"/>
<path opacity="0.14" d="M89.8289 92.4326H89.8066C89.8066 92.4483 89.8646 92.4661 89.8289 92.4326Z" fill="#123049"/>
<path opacity="0.14" d="M95.5181 92.4084L95.556 92.4006C95.5381 92.3995 95.5203 92.4017 95.5181 92.4084Z" fill="#123049"/>
<rect y="1" width="135" height="111" fill="white" fill-opacity="0.5"/>
</g>
<defs>
<clipPath id="clip0">
<rect width="135" height="112" fill="white"/>
</clipPath>
</defs>
</svg>
