<svg width="288" height="111" viewBox="0 0 288 111" fill="none" xmlns="http://www.w3.org/2000/svg">
<path d="M280.326 110.342H7.27451C1.8466 110.342 0.000488281 106.324 0.000488281 101.23L0.174937 99.608L31.3692 50.9661C33.2273 47.8978 36.9708 45.9669 41.0519 45.9669H251.702C256.066 45.9669 260.007 48.1664 261.712 51.5543L286.335 100.473L287.348 99.3474C289.383 105.883 285.53 110.342 280.326 110.342Z" fill="#C1C0BF"/>
<path d="M280.325 107.404H7.27437C1.84646 107.404 -1.66412 102.144 0.80457 97.7106L31.3691 42.8387C33.2272 39.5019 36.9706 37.404 41.0518 37.404H251.702C256.066 37.404 260.007 39.7961 261.711 43.4781L287.014 98.1382C289.046 102.532 285.53 107.404 280.325 107.404Z" fill="#DDDDDD"/>
<path opacity="0.18" d="M258.574 92.3214C267.392 92.3214 274.54 90.8518 274.54 89.039C274.54 87.2261 267.392 85.7565 258.574 85.7565C249.756 85.7565 242.608 87.2261 242.608 89.039C242.608 90.8518 249.756 92.3214 258.574 92.3214Z" fill="#B7CEE1"/>
<path d="M184.493 61.1483L112.096 100.39L50.7065 82.2639L125.48 43.0897L184.493 61.1483V61.1483Z" fill="#B7CEE1"/>
<path d="M184.493 60.6807L112.096 99.9229L50.7065 81.7964L125.48 42.6229L184.493 60.6807V60.6807Z" fill="#F7F7F7"/>
<path d="M139.366 75.9756L94.9694 63.6307L70.3657 79.4163L112.802 91.4718L139.366 75.9756V75.9756Z" fill="#E0E2E6"/>
<path d="M127.51 77.0369L107.007 71.1978L111.27 81.7076" fill="#259FA5"/>
<path d="M110.482 72.1872L101.346 69.5857L102.964 74.7479" fill="#6CD3D8"/>
<path opacity="0.59" d="M177.763 44.4452L106.584 65.3426V64.9062C106.584 64.9062 102.414 66.9914 98.5073 67.2728C98.5073 67.2728 99.406 67.9617 106.622 72.0681L152.642 97.6659L233.979 75.0309L177.763 44.4452Z" fill="#B7CEE1"/>
<path d="M234.075 74.258L177.859 43.6723L106.652 64.5778C105.683 64.7624 103.726 64.7296 102.044 62.1617C102.044 62.1617 100.89 64.959 103.451 68.2662L104.284 69.9118L107.424 71.6597C107.537 71.729 107.652 71.798 107.77 71.8667V71.8507L152.739 96.893L234.075 74.258Z" fill="white"/>
<path d="M25.7732 61.7597L25.6396 57.8842Z" fill="white"/>
<path opacity="0.12" d="M175.967 82.9816L173.82 83.6434L152.246 67.6932L154.479 67.0945L175.967 82.9816V82.9816Z" fill="#123049"/>
<path opacity="0.12" d="M170.705 84.1789L168.559 84.8406L138.537 62.9577L140.77 62.3591L170.705 84.1789V84.1789Z" fill="#123049"/>
<path d="M159.578 62.8131L159.874 59.3668L166.362 59.9262L166.066 63.3725L162.505 73.5531C162.312 74.1046 161.916 74.322 161.618 74.0398C161.469 73.8775 161.375 73.6725 161.35 73.454L159.578 62.8131Z" fill="#FFE9AD"/>
<rect x="163.119" y="21.8045" width="0.519344" height="6.50333" transform="rotate(-85.09 163.119 21.8045)" fill="#C8C8C8"/>
<rect x="162.526" y="28.7014" width="6.92672" height="6.50333" transform="rotate(-85.09 162.526 28.7014)" fill="#E5E5E5"/>
<path d="M162.51 28.6923L168.998 29.2518L166.066 63.3701L165.678 62.7076C165.4 62.2328 164.958 62.1689 164.589 62.5477V62.5477C164.216 62.9329 163.769 62.8946 163.469 62.4518L163.454 62.4302C163.163 62.0018 162.728 61.9723 162.372 62.3575V62.3575C162.014 62.7443 161.578 62.7227 161.279 62.3031L161.245 62.26C160.93 61.8172 160.468 61.8036 160.094 62.2256L159.576 62.8115L162.51 28.6923Z" fill="url(#paint0_linear)"/>
<path d="M165.175 15.9806L168.54 16.2691C169.402 16.3426 170.034 17.1898 169.95 18.1609L169.63 21.8413L163.142 21.2819L163.462 17.6014C163.546 16.6336 164.313 15.9047 165.175 15.9806Z" fill="#C65474"/>
<path d="M163.43 70.8677L162.492 73.5491C162.299 74.1006 161.902 74.318 161.604 74.0358C161.456 73.8735 161.362 73.6685 161.336 73.45L160.871 70.6519L163.43 70.8677Z" fill="#AAAAAA"/>
<path d="M132.437 53.5364C132.413 53.74 132.326 53.931 132.187 54.0823C131.91 54.3452 131.541 54.1422 131.361 53.6291L128.044 44.1463L127.768 40.9357L133.811 40.4178L134.087 43.6284L132.437 53.5364Z" fill="#FFE9AD"/>
<rect x="124.722" y="5.45425" width="6.06568" height="0.483534" transform="rotate(-4.91 124.722 5.45425)" fill="#C8C8C8"/>
<rect x="124.763" y="5.93633" width="6.06568" height="6.44419" transform="rotate(-4.91 124.763 5.93633)" fill="#E5E5E5"/>
<path d="M134.089 43.6276L133.609 43.0817C133.261 42.6885 132.831 42.7012 132.538 43.1136L132.51 43.1528C132.232 43.5428 131.826 43.5636 131.493 43.2032V43.2032C131.161 42.8443 130.756 42.8715 130.484 43.2711L130.47 43.2911C130.189 43.7043 129.772 43.7394 129.425 43.3806V43.3806C129.082 43.0265 128.669 43.0865 128.41 43.5285L128.049 44.1455L125.315 12.3657L131.358 11.8478L134.089 43.6276Z" fill="url(#paint1_linear)"/>
<path d="M130.47 1.51854L130.764 4.94644L124.721 5.46434L124.427 2.03645C124.347 1.13252 124.937 0.342878 125.74 0.27814L128.876 0.00480357C129.679 -0.0639302 130.392 0.613017 130.47 1.51854Z" fill="#C65474"/>
<path d="M132.886 50.9261L132.451 53.5356C132.427 53.7392 132.34 53.9302 132.201 54.0815C131.925 54.3444 131.555 54.1414 131.375 53.6283L130.501 51.1307L132.886 50.9261Z" fill="#AAAAAA"/>
<path d="M243.726 48.4749L245.086 87.0401C245.086 89.0781 251.304 90.7302 258.974 90.7302C266.643 90.7302 272.861 89.0781 272.861 87.0401L274.221 48.4749H243.726Z" fill="#2DBECD"/>
<path fill-rule="evenodd" clip-rule="evenodd" d="M263.896 67.7195C263.896 60.2867 267.915 54.2613 272.871 54.2613V54.2629C277.828 54.2629 281.729 57.8235 281.729 65.2563C281.729 72.6891 277.343 78.864 272.389 78.864C267.435 78.864 263.896 75.1524 263.896 67.7195ZM277.64 59.9654C276.543 58.7138 274.849 58.0241 272.871 58.0241C269.306 58.0241 266.405 62.3735 266.405 67.7195C266.405 70.1652 266.887 71.949 267.879 73.1735C268.899 74.4338 270.459 75.0996 272.389 75.0996C276.028 75.0996 279.22 70.4992 279.22 65.2547C279.22 62.9082 278.703 61.1786 277.64 59.9654Z" fill="#2DBECD"/>
<path d="M260.519 72.4965C248.841 62.5118 248.744 52.5262 248.744 52.5262V48.4741H243.726L245.086 87.0393C245.086 89.0774 251.304 90.7294 258.974 90.7294C262.319 90.7294 265.388 90.4145 267.786 89.891C267.788 89.8902 272.195 82.4805 260.519 72.4965Z" fill="#6CD3D8"/>
<path d="M258.974 52.527C267.396 52.527 274.223 50.7128 274.223 48.4749C274.223 46.237 267.396 44.4228 258.974 44.4228C250.553 44.4228 243.726 46.237 243.726 48.4749C243.726 50.7128 250.553 52.527 258.974 52.527Z" fill="#3A2C22"/>
<path d="M245.771 50.5009C248.412 49.2901 253.331 48.4749 258.974 48.4749C264.618 48.4749 269.537 49.2901 272.178 50.5009C273.476 49.9047 274.224 49.2134 274.224 48.4749C274.224 46.237 267.397 44.4228 258.975 44.4228C250.554 44.4228 243.727 46.237 243.727 48.4749C243.725 49.2134 244.472 49.9047 245.771 50.5009Z" fill="#259FA5"/>
<path opacity="0.14" d="M242.222 92.4469H242.202C242.202 92.4609 242.254 92.4769 242.222 92.4469Z" fill="#123049"/>
<path opacity="0.14" d="M247.325 92.4252L247.359 92.4182C247.343 92.4172 247.327 92.4192 247.325 92.4252Z" fill="#123049"/>
<rect width="288" height="110" fill="white" fill-opacity="0.3"/>
<defs>
<linearGradient id="paint0_linear" x1="159.868" y1="23.5183" x2="141.35" y2="39.4294" gradientUnits="userSpaceOnUse">
<stop stop-color="#FADF90"/>
<stop offset="1" stop-color="#FEF5DA"/>
</linearGradient>
<linearGradient id="paint1_linear" x1="-1400.16" y1="119557" x2="-1400.16" y2="119524" gradientUnits="userSpaceOnUse">
<stop stop-color="#FADF90"/>
<stop offset="1" stop-color="#FEF5DA"/>
</linearGradient>
</defs>
</svg>
