<svg width="49" height="23" viewBox="0 0 49 23" fill="none" xmlns="http://www.w3.org/2000/svg">
<path fill-rule="evenodd" clip-rule="evenodd" d="M45.5506 0H41.895C41.7129 0.0016228 41.5473 0.0722148 41.4231 0.185811L34.0988 6.92694C31.5897 9.23781 28.2131 10.5352 24.5004 10.5352C20.6304 10.5352 17.1288 9.11854 14.5916 6.63402C14.5916 6.63402 9.20431 1.67473 9.15796 1.63011C8.12403 0.687258 6.70105 0.0357017 5.06283 0H0.689558C0.30877 0 0 0.302653 0 0.675898V19.6173C0 21.4867 1.54385 23 3.45027 23H4.78552H5.68782C6.07109 23 6.38151 22.6949 6.38151 22.32L6.38317 15.5797C6.38317 13.8182 7.85003 12.365 9.61821 12.365C12.9095 12.365 15.2696 15.1286 17.402 16.9745C20.0137 19.2359 22.0253 21.4145 24.5004 21.4145C26.9731 21.4145 28.9854 19.2359 31.5971 16.9745C33.7304 15.1286 36.0904 12.365 39.3801 12.365C41.1392 12.365 42.5986 13.8036 42.616 15.5513V19.6173C42.616 21.4867 44.1607 22.9968 46.0679 22.9968H47.5571C47.9462 22.9968 48.3071 23 48.3071 23C48.6896 23 49 22.6949 49 22.3209C49 22.3111 49 3.54096 49 3.38273C49 1.51408 47.4545 0 45.5506 0Z" fill="#FFC832"/>
<mask id="mask0" mask-type="alpha" maskUnits="userSpaceOnUse" x="0" y="0" width="49" height="23">
<path fill-rule="evenodd" clip-rule="evenodd" d="M45.5506 0H41.895C41.7129 0.0016228 41.5473 0.0722148 41.4231 0.185811L34.0988 6.92694C31.5897 9.23781 28.2131 10.5352 24.5004 10.5352C20.6304 10.5352 17.1288 9.11854 14.5916 6.63402C14.5916 6.63402 9.20431 1.67473 9.15796 1.63011C8.12403 0.687258 6.70105 0.0357017 5.06283 0H0.689558C0.30877 0 0 0.302653 0 0.675898V19.6173C0 21.4867 1.54385 23 3.45027 23H4.78552H5.68782C6.07109 23 6.38151 22.6949 6.38151 22.32L6.38317 15.5797C6.38317 13.8182 7.85003 12.365 9.61821 12.365C12.9095 12.365 15.2696 15.1286 17.402 16.9745C20.0137 19.2359 22.0253 21.4145 24.5004 21.4145C26.9731 21.4145 28.9854 19.2359 31.5971 16.9745C33.7304 15.1286 36.0904 12.365 39.3801 12.365C41.1392 12.365 42.5986 13.8036 42.616 15.5513V19.6173C42.616 21.4867 44.1607 22.9968 46.0679 22.9968H47.5571C47.9462 22.9968 48.3071 23 48.3071 23C48.6896 23 49 22.6949 49 22.3209C49 22.3111 49 3.54096 49 3.38273C49 1.51408 47.4545 0 45.5506 0Z" fill="white"/>
</mask>
<g mask="url(#mask0)">
<path fill-rule="evenodd" clip-rule="evenodd" d="M0 0H49V23H0V0Z" fill="#FFC832"/>
</g>
</svg>
